<svg width="24" height="24" viewBox="0 0 24 24" fill="none" xmlns="http://www.w3.org/2000/svg">
<path d="M8.18462 15.5385L15.8769 7.84615M2 17.8462C2 18.2536 2.16166 18.6445 2.44952 18.9329C2.73737 19.2214 3.12789 19.3838 3.53538 19.3846H20.4646C20.8721 19.3838 21.2626 19.2214 21.5505 18.9329C21.8383 18.6445 22 18.2536 22 17.8462V14.7169C21.3357 14.5368 20.7492 14.143 20.3311 13.5963C19.9129 13.0497 19.6863 12.3806 19.6863 11.6923C19.6863 11.0041 19.9129 10.3349 20.3311 9.78828C20.7492 9.24162 21.3357 8.84782 22 8.66769V5.53846C22 5.13097 21.8383 4.74012 21.5505 4.45169C21.2626 4.16326 20.8721 4.00081 20.4646 4H3.53538C3.12789 4.00081 2.73737 4.16326 2.44952 4.45169C2.16166 4.74012 2 5.13097 2 5.53846V8.66154C2.66957 8.83765 3.26197 9.23052 3.68471 9.77882C4.10744 10.3271 4.33671 11 4.33671 11.6923C4.33671 12.3846 4.10744 13.0575 3.68471 13.6058C3.26197 14.1541 2.66957 14.547 2 14.7231V17.8462Z" stroke="black" stroke-width="1.5" stroke-linecap="round" stroke-linejoin="round"/>
<path d="M8.95386 9.38465C9.15787 9.38465 9.35353 9.30361 9.49779 9.15935C9.64205 9.01509 9.72309 8.81943 9.72309 8.61542C9.72309 8.41141 9.64205 8.21575 9.49779 8.07149C9.35353 7.92724 9.15787 7.84619 8.95386 7.84619C8.74985 7.84619 8.55419 7.92724 8.40993 8.07149C8.26568 8.21575 8.18463 8.41141 8.18463 8.61542C8.18463 8.81943 8.26568 9.01509 8.40993 9.15935C8.55419 9.30361 8.74985 9.38465 8.95386 9.38465ZM15.1077 15.5385C15.3117 15.5385 15.5074 15.4575 15.6516 15.3132C15.7959 15.1689 15.8769 14.9733 15.8769 14.7693C15.8769 14.5653 15.7959 14.3696 15.6516 14.2253C15.5074 14.0811 15.3117 14 15.1077 14C14.9037 14 14.708 14.0811 14.5638 14.2253C14.4195 14.3696 14.3385 14.5653 14.3385 14.7693C14.3385 14.9733 14.4195 15.1689 14.5638 15.3132C14.708 15.4575 14.9037 15.5385 15.1077 15.5385Z" stroke="black" stroke-width="1.5" stroke-linecap="round" stroke-linejoin="round"/>
</svg>
