<svg width="592" height="450" viewBox="0 0 592 450" fill="none" xmlns="http://www.w3.org/2000/svg">
<g opacity="0.8">
<g opacity="0.5">
<g opacity="0.5">
<g opacity="0.5">
<g opacity="0.5">
<path opacity="0.5" d="M584.252 105.134C588.531 105.134 592 101.397 592 96.7861C592 92.1756 588.531 88.438 584.252 88.438C579.973 88.438 576.504 92.1756 576.504 96.7861C576.504 101.397 579.973 105.134 584.252 105.134Z" fill="white" fill-opacity="0.2"/>
</g>
</g>
</g>
</g>
<g opacity="0.8">
<g opacity="0.8">
<path opacity="0.8" d="M573.062 23.8263C573.959 18.3227 570.223 13.1347 564.72 12.2387C559.216 11.3426 554.028 15.0777 553.132 20.5813C552.236 26.0848 555.971 31.2728 561.475 32.1689C566.978 33.065 572.166 29.3298 573.062 23.8263Z" fill="white" fill-opacity="0.2"/>
</g>
</g>
<g opacity="0.8">
<g opacity="0.8">
<path opacity="0.8" d="M108.721 33.8592C110.242 39.2797 107.076 44.9176 101.656 46.4382C96.235 47.9589 90.5972 44.7934 89.0765 39.3729C87.5558 33.9523 90.7213 28.3144 96.1419 26.7938C101.562 25.2628 107.2 28.4282 108.721 33.8592Z" fill="white" fill-opacity="0.2"/>
</g>
</g>
<g opacity="0.8">
<g opacity="0.8">
<g opacity="0.8">
<g opacity="0.8">
<path opacity="0.8" d="M512.359 337.796C514.614 336.927 517.221 337.765 518.472 339.845C520.593 343.383 517.727 348.338 512.421 347.365C507.559 345.007 508.397 339.327 512.359 337.796Z" fill="white" fill-opacity="0.2"/>
</g>
</g>
</g>
</g>
<g opacity="0.8">
<g opacity="0.8">
<path opacity="0.8" d="M540.96 324.274C543.463 329.322 541.404 335.446 536.356 337.95C531.308 340.453 525.184 338.395 522.681 333.346C520.177 328.298 522.236 322.174 527.284 319.671C532.332 317.167 538.456 319.226 540.96 324.274Z" fill="white" fill-opacity="0.2"/>
</g>
</g>
<g opacity="0.8">
<g opacity="0.8">
<path opacity="0.8" d="M544.054 12.9626C547.488 12.9626 550.271 10.1791 550.271 6.74544C550.271 3.31182 547.488 0.52832 544.054 0.52832C540.62 0.52832 537.837 3.31182 537.837 6.74544C537.837 10.1791 540.62 12.9626 544.054 12.9626Z" fill="white" fill-opacity="0.2"/>
</g>
</g>
</g>
<path d="M471.309 390.908H449.745V413.25H474.958V394.543C474.958 392.54 473.319 390.908 471.309 390.908Z" fill="#CED3E6"/>
<path d="M409.242 343.029H334.393V390.908H409.242V343.029Z" fill="#CED3E6"/>
<path d="M466.475 413.25H259.983V404.956C259.983 397.199 266.297 390.908 274.081 390.908H452.368C460.152 390.908 466.466 397.199 466.466 404.956V413.25H466.475Z" fill="white"/>
<path d="M400.078 343.029H325.229V390.908H400.078V343.029Z" fill="white"/>
<path d="M325.226 357.73L400.067 351.756L400.085 343.029H325.323L325.226 357.73Z" fill="#CED3E6"/>
<path d="M532.92 145.317V333.084C532.92 338.591 528.439 343.047 522.922 343.047H203.332C197.806 343.047 193.333 338.582 193.333 333.084V145.317C193.333 139.811 197.815 135.355 203.332 135.355H522.922C528.439 135.346 532.92 139.811 532.92 145.317Z" fill="#CED3E6"/>
<path d="M532.921 145.318V319.196H502.005V135.347H522.923C528.44 135.347 532.921 139.812 532.921 145.318Z" fill="#585859"/>
<path d="M520.203 145.317V333.084C520.203 338.591 515.722 343.047 510.205 343.047H203.332C197.806 343.047 193.333 338.582 193.333 333.084V145.317C193.333 139.811 197.815 135.354 203.332 135.354H510.205C510.356 135.354 510.506 135.354 510.648 135.363C510.754 135.372 510.86 135.372 510.976 135.381H510.984C511.064 135.39 511.135 135.39 511.215 135.407C511.348 135.416 511.472 135.434 511.604 135.452C511.693 135.46 511.773 135.478 511.852 135.487C511.897 135.496 511.932 135.496 511.976 135.504C512.056 135.513 512.136 135.531 512.224 135.549C516.776 136.484 520.203 140.499 520.203 145.317Z" fill="white"/>
<path d="M512.215 135.548C512.136 135.53 512.056 135.513 511.967 135.504C511.932 135.495 511.888 135.486 511.844 135.486C511.755 135.469 511.675 135.46 511.596 135.451C511.463 135.433 511.339 135.416 511.206 135.407C511.126 135.398 511.055 135.389 510.976 135.38H510.967C510.86 135.372 510.754 135.363 510.639 135.363C510.489 135.354 510.347 135.354 510.196 135.354H203.332C197.806 135.354 193.333 139.819 193.333 145.316V319.195H520.203V145.316C520.203 140.498 516.776 136.483 512.215 135.548ZM507.238 301.82C507.238 303.32 506.025 304.529 504.52 304.529H209.017C207.512 304.529 206.298 303.32 206.298 301.82V150.973C206.298 149.473 207.512 148.264 209.017 148.264H504.52C506.025 148.264 507.238 149.473 507.238 150.973V301.82Z" fill="#39393B"/>
<path d="M507.24 150.974V301.821C507.24 303.321 506.026 304.53 504.521 304.53H209.019C207.513 304.53 206.3 303.321 206.3 301.821V150.974C206.3 149.474 207.513 148.265 209.019 148.265H504.521C506.018 148.265 507.24 149.482 507.24 150.974Z" fill="#CED3E6"/>
<path d="M507.24 150.974V165.207H206.291V150.974C206.291 149.474 207.504 148.265 209.01 148.265H504.512C506.018 148.265 507.24 149.482 507.24 150.974Z" fill="white"/>
<path d="M483.931 156.515C483.931 157.786 482.895 158.819 481.62 158.819C480.345 158.819 479.309 157.786 479.309 156.515C479.309 155.245 480.345 154.212 481.62 154.212C482.895 154.212 483.931 155.245 483.931 156.515Z" fill="#DF615C"/>
<path d="M489.103 158.819C490.38 158.819 491.415 157.787 491.415 156.515C491.415 155.244 490.38 154.212 489.103 154.212C487.827 154.212 486.792 155.244 486.792 156.515C486.792 157.787 487.827 158.819 489.103 158.819Z" fill="#5392F3"/>
<path d="M469.835 158.95H234.729C233.542 158.95 232.577 157.979 232.577 156.806V156.223C232.577 155.041 233.551 154.079 234.729 154.079H469.826C471.012 154.079 471.978 155.05 471.978 156.223V156.797C471.987 157.979 471.012 158.95 469.835 158.95Z" fill="#D2DCEC"/>
<path d="M217.158 156.515V158.774C217.158 159.091 216.812 159.294 216.538 159.136L214.581 158.006L212.623 156.877C212.349 156.718 212.349 156.321 212.623 156.162L214.581 155.032L216.538 153.903C216.812 153.744 217.158 153.947 217.158 154.265V156.515Z" fill="black"/>
<path d="M220.604 156.515V158.774C220.604 159.091 220.949 159.294 221.223 159.136L223.181 158.006L225.138 156.877C225.412 156.718 225.412 156.321 225.138 156.162L223.181 155.032L221.223 153.903C220.949 153.744 220.604 153.947 220.604 154.265V156.515Z" fill="black"/>
<path d="M494.531 158.439L494.425 158.334C494.194 158.104 494.194 157.742 494.425 157.513L497.524 154.425C497.754 154.195 498.118 154.195 498.348 154.425L498.454 154.53C498.684 154.76 498.684 155.122 498.454 155.351L495.355 158.439C495.124 158.66 494.761 158.66 494.531 158.439Z" fill="#39393B"/>
<path d="M498.348 158.439L498.454 158.334C498.684 158.104 498.684 157.742 498.454 157.513L495.355 154.425C495.124 154.195 494.761 154.195 494.531 154.425L494.425 154.53C494.194 154.76 494.194 155.122 494.425 155.351L497.524 158.439C497.754 158.66 498.126 158.66 498.348 158.439Z" fill="#39393B"/>
<path d="M466.725 298.468H246.001C242.858 298.468 240.316 295.926 240.316 292.803V174.313C240.316 171.18 242.866 168.648 246.001 168.648H466.725C469.869 168.648 472.41 171.189 472.41 174.313V292.794C472.41 295.926 469.869 298.468 466.725 298.468Z" fill="white"/>
<path d="M307.497 235.067H256.611C255.832 235.067 255.194 234.44 255.194 233.655C255.194 232.879 255.823 232.243 256.611 232.243H307.497C308.276 232.243 308.914 232.87 308.914 233.655C308.905 234.44 308.276 235.067 307.497 235.067Z" fill="#CED3E6"/>
<path d="M307.497 223.155H256.611C255.832 223.155 255.194 222.528 255.194 221.743C255.194 220.966 255.823 220.331 256.611 220.331H307.497C308.276 220.331 308.914 220.958 308.914 221.743C308.905 222.519 308.276 223.155 307.497 223.155Z" fill="#CED3E6"/>
<path d="M307.497 246.988H256.611C255.832 246.988 255.194 246.362 255.194 245.576C255.194 244.8 255.823 244.165 256.611 244.165H307.497C308.276 244.165 308.914 244.791 308.914 245.576C308.905 246.362 308.276 246.988 307.497 246.988Z" fill="#CED3E6"/>
<path d="M463.855 235.066H412.969C412.19 235.066 411.552 234.44 411.552 233.655C411.552 232.878 412.181 232.243 412.969 232.243H463.855C464.634 232.243 465.272 232.869 465.272 233.655C465.272 234.44 464.634 235.066 463.855 235.066Z" fill="#CED3E6"/>
<path d="M463.855 223.155H412.969C412.19 223.155 411.552 222.528 411.552 221.743C411.552 220.966 412.181 220.331 412.969 220.331H463.855C464.634 220.331 465.272 220.958 465.272 221.743C465.272 222.519 464.634 223.155 463.855 223.155Z" fill="#CED3E6"/>
<path d="M463.855 246.988H412.969C412.19 246.988 411.552 246.361 411.552 245.576C411.552 244.799 412.181 244.164 412.969 244.164H463.855C464.634 244.164 465.272 244.791 465.272 245.576C465.272 246.361 464.634 246.988 463.855 246.988Z" fill="#CED3E6"/>
<path d="M240.316 278.304H472.419V297.267C472.419 297.928 471.879 298.467 471.215 298.467H241.52C240.856 298.467 240.316 297.928 240.316 297.267V278.304Z" fill="#39393B"/>
<path d="M449.615 285.779V284.067H451.758V282.549H448.844C448.419 282.549 448.083 282.893 448.083 283.308V285.779H449.615Z" fill="white"/>
<path d="M449.615 288.823H448.092V291.426C448.092 291.85 448.437 292.185 448.853 292.185H451.767V290.667H449.624V288.823H449.615Z" fill="white"/>
<path d="M456.231 285.779H457.754V283.309C457.754 282.885 457.409 282.55 456.992 282.55H454.194V284.068H456.231V285.779Z" fill="white"/>
<path d="M456.231 288.823V290.659H454.194V292.176H456.992C457.417 292.176 457.754 291.832 457.754 291.418V288.814H456.231V288.823Z" fill="white"/>
<path d="M253.831 287.693V282.884L258.011 285.293L262.182 287.693L258.011 290.093L253.831 292.493V287.693Z" fill="white"/>
<path d="M276.977 292.115H275.879C275.472 292.115 275.135 291.78 275.135 291.374V284.112C275.135 283.706 275.472 283.371 275.879 283.371H276.977C277.385 283.371 277.721 283.706 277.721 284.112V291.374C277.721 291.78 277.385 292.115 276.977 292.115Z" fill="white"/>
<path d="M282.382 292.115H281.284C280.877 292.115 280.54 291.78 280.54 291.374V284.112C280.54 283.706 280.877 283.371 281.284 283.371H282.382C282.789 283.371 283.126 283.706 283.126 284.112V291.374C283.126 291.78 282.789 292.115 282.382 292.115Z" fill="white"/>
<path d="M472.42 274.51H240.316V278.305H472.42V274.51Z" fill="#CED3E6"/>
<path d="M359.41 274.519H240.316V278.313H359.41V274.519Z" fill="#DF615C"/>
<path d="M284.548 151.156C284.548 151.156 283.148 159.68 276.843 161.207C271.751 162.433 266.96 157.571 265.304 155.648C264.905 155.189 264.693 154.898 264.693 154.898C264.693 154.898 264.312 154.933 263.745 154.924C262.417 154.906 260.061 154.633 259.14 153.009C257.821 150.697 262.612 149.109 262.612 149.109C262.612 149.109 260.159 146.921 260.77 145.332C261.372 143.77 264.666 143.444 264.666 143.444C264.666 143.444 261.115 141.15 262.31 139.147C264.099 136.138 267.766 139.447 268.058 139.632C267.828 139.367 263.231 134.629 265.747 133.782C267.943 133.04 271.547 135.502 273.929 137.938C274.31 138.326 274.523 138.547 274.523 138.547C274.523 138.547 274.664 138.441 274.912 138.273C276.099 137.479 279.748 135.361 282.068 137.294C284.858 139.641 284.548 151.156 284.548 151.156Z" fill="#EA9B7A"/>
<path d="M277.968 156.391C277.809 156.461 277.623 156.461 277.472 156.355C277.242 156.205 277.18 155.897 277.34 155.667C278.172 154.441 278.429 153.179 278.101 151.935C277.269 148.74 272.983 146.534 272.938 146.508C272.69 146.384 272.593 146.084 272.717 145.837C272.841 145.59 273.142 145.493 273.39 145.617C273.585 145.714 278.119 148.052 279.066 151.679C279.465 153.214 279.164 154.741 278.163 156.214C278.119 156.294 278.048 156.355 277.968 156.391Z" fill="#D96C63"/>
<path d="M273.592 144.098C273.592 144.689 273.344 145.157 272.884 145.457C272.787 145.518 272.68 145.571 272.556 145.624C272.3 145.721 271.99 145.792 271.653 145.827C271.901 145.986 272.122 146.163 272.291 146.348C272.468 146.533 272.601 146.727 272.68 146.93C272.787 147.23 272.831 147.68 272.459 148.183C271.653 149.242 269.802 149.675 268.297 149.851C269.377 150.486 270.316 151.351 270.626 152.216C270.821 152.772 270.759 153.301 270.431 153.734C270.201 154.034 269.82 154.298 269.35 154.528C268.173 155.101 266.446 155.454 265.294 155.649C264.896 155.19 264.683 154.898 264.683 154.898C264.683 154.898 264.303 154.943 263.736 154.934C263.807 154.872 263.895 154.837 263.993 154.828C265.844 154.616 269.014 153.963 269.634 153.142C269.714 153.028 269.793 152.869 269.687 152.551C269.342 151.598 267.544 150.336 265.994 149.957C265.746 149.895 265.587 149.666 265.622 149.41C265.649 149.154 265.87 148.969 266.127 148.978C267.367 149.004 270.767 148.792 271.671 147.583C271.804 147.407 271.768 147.31 271.75 147.266C271.671 147.036 271.387 146.807 270.998 146.577C270.201 146.11 268.943 145.686 268.04 145.466C267.934 145.439 267.845 145.386 267.783 145.307C267.677 145.192 267.632 145.024 267.668 144.866C267.73 144.601 268.004 144.433 268.27 144.495C268.438 144.539 268.801 144.627 269.244 144.768C270.086 144.866 270.891 144.91 271.502 144.848C271.866 144.813 272.158 144.733 272.353 144.618C272.468 144.548 272.601 144.415 272.601 144.089C272.609 143.674 272.397 143.136 272.06 142.58C271.954 142.404 271.972 142.183 272.105 142.024L272.114 142.015C272.326 141.742 272.742 141.768 272.919 142.068C273.336 142.757 273.601 143.48 273.592 144.098Z" fill="#D96C63"/>
<path d="M269.925 134.77C270.784 135.299 271.537 135.793 272.272 136.482C272.98 137.152 273.432 137.497 273.919 137.947C273.884 138 273.955 137.894 273.919 137.947L264.302 97.3029C264.16 96.6764 263.221 96.8705 263.336 97.497L269.925 134.77C269.934 134.77 269.925 134.77 269.925 134.77Z" fill="#39393B"/>
<path d="M278.287 157.341C274.957 159.485 274.018 157.897 274.018 157.897L272.327 148.349C272.38 148.296 272.424 148.243 272.468 148.182C272.84 147.679 272.796 147.22 272.69 146.929C272.61 146.717 272.477 146.523 272.3 146.346C272.185 146.223 272.052 146.117 271.91 146.002L271.875 145.79C272.123 145.746 272.362 145.693 272.557 145.614C272.681 145.561 272.787 145.517 272.885 145.446C273.186 145.252 273.398 144.97 273.504 144.643C273.912 145.031 274.408 145.252 275.001 145.314C275.161 145.331 275.32 145.331 275.488 145.331L278.287 157.341Z" fill="#39393B"/>
<path d="M281.185 142.438C281.087 142.526 279.617 143.806 277.899 144.635C276.951 145.094 275.915 145.421 275.003 145.324C274.25 145.244 273.639 144.9 273.197 144.309C271.611 142.191 272.966 139.42 273.923 137.956C274.304 138.344 274.516 138.564 274.516 138.564C274.516 138.564 274.658 138.459 274.906 138.291C274.091 139.5 272.718 141.997 274.002 143.718C274.277 144.088 274.64 144.291 275.109 144.344C276.872 144.53 279.617 142.5 280.52 141.706C280.724 141.52 281.043 141.538 281.229 141.75C281.415 141.935 281.388 142.253 281.185 142.438Z" fill="#D96C63"/>
<path d="M332.654 132.58V132.563C332.654 132.545 332.654 132.563 332.654 132.563L332.645 132.615L332.618 132.739L332.556 133.03L332.423 133.674C332.379 133.895 332.326 134.124 332.282 134.354C332.229 134.583 332.184 134.813 332.122 135.042C331.91 135.969 331.679 136.913 331.423 137.857C330.9 139.745 330.351 141.643 329.713 143.504C329.067 145.366 328.403 147.228 327.65 149.037C327.26 149.937 326.888 150.846 326.472 151.728C326.083 152.628 325.649 153.502 325.232 154.376C324.356 156.114 323.444 157.826 322.452 159.467C322.221 159.891 321.956 160.288 321.699 160.703C321.442 161.108 321.203 161.523 320.928 161.92C320.397 162.714 319.883 163.517 319.317 164.285C318.236 165.856 317.041 167.321 315.854 168.777C314.623 170.197 313.366 171.591 312.028 172.889C311.692 173.215 311.364 173.55 311.028 173.868L309.991 174.803L309.478 175.271L309.345 175.386L309.407 175.324L309.496 175.245C309.62 175.148 309.743 175.059 309.885 174.971C310.434 174.583 311.116 174.283 311.745 174.106C311.904 174.062 312.037 174.018 312.188 174C312.259 173.983 312.338 173.974 312.409 173.965L312.595 173.93C312.719 173.912 312.852 173.903 312.967 173.903C313.064 173.894 313.162 173.886 313.259 173.895C313.304 173.895 313.366 173.903 313.392 173.903C313.428 173.903 313.463 173.903 313.498 173.903C313.56 173.903 313.64 173.921 313.693 173.93C313.737 173.93 313.773 173.939 313.817 173.947L313.87 173.965C313.879 173.965 313.888 173.965 313.897 173.965C314.039 174.009 313.755 173.965 313.321 173.78C312.878 173.594 312.294 173.286 311.656 172.915C311.019 172.536 310.319 172.077 309.611 171.574C308.185 170.568 306.688 169.368 305.2 168.088C303.704 166.8 302.198 165.432 300.702 164.003C299.205 162.582 297.708 161.1 296.238 159.591C294.759 158.082 293.28 156.538 291.837 154.976C291.102 154.199 290.376 153.414 289.667 152.628L287.577 150.352L271.442 162.414L271.982 163.226L272.496 163.976L273.514 165.45C274.205 166.421 274.896 167.382 275.595 168.335C277.012 170.233 278.465 172.112 279.97 173.965C281.493 175.809 283.043 177.645 284.681 179.445C285.505 180.345 286.337 181.245 287.196 182.127C288.055 183.019 288.941 183.901 289.853 184.775C291.686 186.531 293.617 188.251 295.796 189.945C296.885 190.793 298.045 191.622 299.302 192.443C300.569 193.263 301.941 194.066 303.553 194.825C305.165 195.575 307.007 196.308 309.363 196.802L309.797 196.89C309.947 196.917 310.115 196.943 310.275 196.969C310.594 197.014 310.912 197.058 311.231 197.102C311.559 197.137 311.922 197.164 312.267 197.181L312.79 197.208C312.967 197.217 313.162 197.217 313.348 197.217C313.729 197.217 314.109 197.208 314.481 197.19C314.88 197.164 315.287 197.119 315.695 197.067C315.898 197.04 316.093 197.014 316.306 196.987C316.518 196.952 316.731 196.908 316.943 196.864C317.368 196.775 317.785 196.687 318.21 196.564C319.928 196.078 321.628 195.284 323.125 194.278C323.488 194.031 323.833 193.766 324.179 193.493L324.435 193.29L324.666 193.096L324.852 192.928L325.595 192.275L327.074 190.96C327.553 190.51 328.022 190.051 328.5 189.593C330.404 187.775 332.158 185.816 333.867 183.83C335.532 181.81 337.135 179.754 338.587 177.609C340.075 175.483 341.412 173.268 342.687 171.035L343.608 169.341C343.918 168.777 344.193 168.203 344.485 167.629C344.777 167.056 345.061 166.491 345.335 165.909L346.15 164.179C348.258 159.538 349.958 154.764 351.277 149.902C351.924 147.466 352.508 145.013 352.951 142.516C353.173 141.263 353.385 140.01 353.553 138.722C353.598 138.404 353.633 138.078 353.677 137.751C353.713 137.425 353.757 137.098 353.793 136.763C353.828 136.436 353.863 136.083 353.89 135.739L353.987 134.513L332.654 132.58Z" fill="#FAAF3A"/>
<path d="M281.981 159.971C282.043 160.73 282.716 161.303 283.487 161.233C284.248 161.171 284.824 160.5 284.753 159.733C284.691 158.974 284.018 158.4 283.248 158.471C282.486 158.532 281.919 159.203 281.981 159.971Z" fill="#C77E2E"/>
<path d="M310.91 183.795C311.176 183.795 311.415 183.618 311.486 183.345C312.602 178.897 312.46 173.312 312.451 173.073C312.442 172.747 312.168 172.491 311.84 172.5C311.513 172.509 311.256 172.782 311.265 173.109C311.265 173.162 311.406 178.765 310.335 183.053C310.255 183.371 310.45 183.689 310.769 183.768C310.813 183.786 310.866 183.795 310.91 183.795Z" fill="#C77E2E"/>
<path d="M314.722 179.506C314.81 179.506 314.899 179.488 314.988 179.444C315.28 179.294 315.404 178.941 315.253 178.65C315.174 178.491 313.252 174.661 312.34 173.514C312.136 173.258 311.764 173.214 311.507 173.417C311.25 173.62 311.206 173.991 311.41 174.247C312.242 175.288 314.173 179.135 314.191 179.17C314.288 179.382 314.5 179.506 314.722 179.506Z" fill="#C77E2E"/>
<path d="M277.701 171.477C277.861 171.477 278.011 171.416 278.126 171.301C283.103 166.183 294.341 158.109 294.457 158.021C294.722 157.827 294.784 157.456 294.589 157.191C294.395 156.926 294.023 156.865 293.757 157.059C293.642 157.138 282.324 165.283 277.276 170.471C277.046 170.71 277.055 171.08 277.285 171.31C277.409 171.416 277.551 171.477 277.701 171.477Z" fill="#C77E2E"/>
<path d="M282.514 167.1C282.646 167.1 282.779 167.055 282.894 166.958C283.142 166.747 283.178 166.376 282.974 166.12L276.97 158.937C276.757 158.69 276.385 158.655 276.128 158.858C275.881 159.07 275.845 159.44 276.049 159.696L282.053 166.879C282.177 167.029 282.345 167.1 282.514 167.1Z" fill="#C77E2E"/>
<path d="M347.341 306.892L355.4 259.524L356.064 255.65L332.871 247.497L331.551 247.029L326.025 245.088C326.025 245.088 325.582 247.117 324.9 250.594C324.821 251.018 324.732 251.459 324.643 251.918C322.465 263.124 318.391 286.208 317.275 306.883H347.341V306.892Z" fill="#39393B"/>
<path d="M343.237 306.891C346.718 288.008 351.199 260.406 351.464 258.791C351.517 258.447 351.287 258.129 350.942 258.076C350.605 258.023 350.278 258.253 350.224 258.597C350.162 258.994 345.513 287.646 341.962 306.891H343.237Z" fill="#585859"/>
<path d="M394.265 229.96C394.265 229.96 396.01 246.461 392.246 255.647C388.482 264.833 339.713 260.104 327.288 251.835C322.188 248.447 333.045 217.157 333.045 217.157L394.265 229.96Z" fill="#39393B"/>
<path d="M324.637 251.929C325.372 251.796 326.098 251.611 326.798 251.373C327.913 250.993 328.985 250.481 330.003 249.828C331.057 249.149 332.014 248.364 332.864 247.499C338.239 242.099 339.825 233.927 339.895 233.53C339.957 233.195 339.736 232.869 339.391 232.798C339.054 232.736 338.726 232.957 338.656 233.301C338.638 233.398 336.991 241.896 331.535 247.031C330.854 247.675 330.11 248.267 329.313 248.778C328.347 249.396 327.32 249.881 326.248 250.234C325.806 250.375 325.345 250.499 324.885 250.596C324.814 251.02 324.725 251.461 324.637 251.929Z" fill="#585859"/>
<path d="M354.728 256.542C354.711 256.869 354.976 257.151 355.322 257.178C355.322 257.178 355.322 257.178 355.331 257.178C355.676 257.195 355.968 256.939 355.986 256.604C356.092 254.345 356.234 252.042 356.376 249.73C356.402 249.324 356.429 248.918 356.455 248.512C356.951 240.977 357.571 233.573 358.04 228.34C358.076 227.917 358.111 227.511 358.156 227.114C358.262 225.967 358.359 224.952 358.439 224.087C358.023 224.025 357.607 223.955 357.199 223.884C357.119 224.749 357.022 225.773 356.916 226.929C356.88 227.326 356.845 227.732 356.801 228.155C356.331 233.335 355.711 240.676 355.224 248.168C355.198 248.583 355.171 248.998 355.145 249.412C354.976 251.804 354.835 254.204 354.728 256.542Z" fill="#585859"/>
<path d="M352.94 248.578C353.135 248.675 354.012 249.081 355.127 249.416C355.517 249.531 355.933 249.646 356.367 249.725C356.757 249.804 357.155 249.857 357.554 249.875C358.316 249.919 359.042 249.84 359.653 249.549C360.414 249.187 360.91 248.525 361.079 247.643C361.53 245.313 362.487 235.712 363.133 228.918C363.177 228.503 363.213 228.088 363.248 227.7C363.355 226.615 363.443 225.627 363.523 224.788C363.107 224.735 362.69 224.691 362.274 224.629C362.194 225.477 362.106 226.474 362 227.577C361.964 227.974 361.92 228.38 361.885 228.794C361.238 235.571 360.29 245.163 359.848 247.413C359.75 247.934 359.511 248.269 359.095 248.463C358.431 248.781 357.439 248.71 356.447 248.499C356.022 248.41 355.606 248.287 355.216 248.163C354.499 247.934 353.879 247.669 353.498 247.493C353.188 247.343 352.816 247.466 352.657 247.766C352.506 248.066 352.63 248.428 352.94 248.578Z" fill="#585859"/>
<path d="M388.197 306.891C390.128 289.313 392.359 265.779 393.617 252.155C393.661 251.732 393.697 251.317 393.732 250.911C394.29 244.893 394.627 241.107 394.627 241.107C391.633 239.863 386.205 240.719 380.431 242.352C380.014 242.466 379.598 242.59 379.173 242.713C368.918 245.775 358.043 250.946 358.043 250.946V306.891H388.197Z" fill="#39393B"/>
<path d="M385.261 306.889C386.926 287.344 388.901 259.107 388.927 258.736C388.954 258.392 388.688 258.092 388.343 258.065C387.997 258.048 387.696 258.304 387.679 258.648C387.652 259.018 385.668 287.361 384.003 306.889H385.261Z" fill="#585859"/>
<path d="M375.728 233.529C375.781 233.82 376.64 238.241 379.181 242.714C380.678 245.353 382.768 248 385.62 249.827C388.02 251.362 390.694 252.139 393.616 252.156C393.661 251.733 393.696 251.318 393.732 250.912C391.004 250.912 388.516 250.197 386.302 248.785C383.751 247.153 381.847 244.77 380.439 242.361C377.844 237.914 376.967 233.379 376.959 233.308C376.897 232.973 376.569 232.743 376.232 232.805C375.887 232.867 375.666 233.184 375.728 233.529Z" fill="#585859"/>
<path d="M325.582 228.921C339.078 241.478 371.004 248.149 395.605 236.21C398.306 228.86 401.273 202.634 402.07 194.79C402.229 193.228 402.353 191.666 402.46 190.104C402.956 182.586 402.849 175.006 402.486 167.082C402.469 166.65 402.442 166.218 402.424 165.785C402.106 159.264 401.618 152.505 401.167 145.322C400.272 131.107 395.508 122.353 387.237 121.047C383.393 120.438 380.347 119.362 378.106 118.303C377.832 118.17 377.575 118.047 377.318 117.915C374.652 116.556 373.138 115.338 373.138 115.338H354.691C353.106 117.641 351.105 119.097 348.953 120.121C348.714 120.235 348.474 120.341 348.226 120.447C341.682 123.262 334.048 122.706 332.472 130.568C331.48 135.51 335.279 145.666 334.881 166.27C334.854 167.779 334.801 169.35 334.721 170.974C334.65 172.5 334.553 174.071 334.429 175.695C334.314 177.203 334.181 178.774 334.022 180.38C333.88 181.783 333.721 183.23 333.543 184.704C333.357 186.222 333.154 187.775 332.924 189.372C331.701 197.958 328.407 217.909 325.582 228.921Z" fill="#FAAF3A"/>
<path d="M388.803 233.219C388.759 233.219 388.706 233.21 388.652 233.201C388.36 233.122 388.183 232.822 388.263 232.522C398.509 195.09 396.437 157.05 396.419 156.67C396.401 156.37 396.632 156.106 396.941 156.088C397.251 156.07 397.508 156.3 397.526 156.608C397.544 156.988 399.625 195.214 389.334 232.822C389.263 233.051 389.042 233.219 388.803 233.219Z" fill="#C77E2E"/>
<path d="M333.203 184.607C333.504 184.607 333.761 184.387 333.796 184.078C335.018 173.251 335.036 151.72 335.036 151.499C335.036 151.173 334.77 150.908 334.443 150.908C334.115 150.908 333.849 151.173 333.849 151.499C333.849 151.711 333.832 173.189 332.618 183.946C332.583 184.272 332.813 184.563 333.141 184.599C333.159 184.599 333.185 184.607 333.203 184.607Z" fill="#C77E2E"/>
<path d="M358.479 225.376C358.541 226.134 359.214 226.708 359.985 226.637C360.746 226.576 361.322 225.905 361.251 225.137C361.189 224.378 360.516 223.805 359.745 223.876C358.975 223.937 358.408 224.617 358.479 225.376Z" fill="#C77E2E"/>
<path d="M358.259 232.081C358.321 232.84 358.994 233.413 359.764 233.343C360.526 233.281 361.102 232.61 361.031 231.842C360.96 231.075 360.296 230.51 359.525 230.581C358.755 230.642 358.188 231.313 358.259 232.081Z" fill="#C77E2E"/>
<path d="M342.016 158.327C338.394 154.136 339.749 144.809 339.811 144.412C339.855 144.12 340.103 143.909 340.395 143.909H352.678C352.97 143.909 353.218 144.12 353.263 144.412C353.325 144.809 354.679 154.136 351.057 158.327C349.906 159.66 348.383 160.33 346.532 160.33C344.69 160.339 343.167 159.66 342.016 158.327ZM340.917 145.1C340.687 147.068 340.085 154.295 342.91 157.56C343.84 158.636 345.027 159.157 346.532 159.157C348.046 159.157 349.233 158.636 350.154 157.56C352.979 154.295 352.377 147.068 352.147 145.1H340.917Z" fill="#C77E2E"/>
<path d="M374.809 70.0366C371.373 67.8218 360.542 66.71 360.542 66.71C360.542 66.71 358.762 62.0509 356.752 60.7184C352.191 57.6918 351.625 63.8245 351.625 63.8245C351.625 63.8245 347.17 57.6035 343.158 59.386C339.147 61.1596 344.274 66.9394 344.274 66.9394C344.274 66.9394 338.261 65.8276 338.925 70.9367C339.589 76.0458 345.39 78.2607 345.39 78.2607C345.39 78.2607 343.61 81.1462 344.496 85.8141C345.39 90.4732 347.391 90.7026 347.391 90.7026L372.356 92.9263C372.356 92.9263 377.484 92.9263 378.821 86.4847C380.158 80.0431 375.704 77.3783 375.704 77.3783C375.704 77.3783 378.6 72.4809 374.809 70.0366Z" fill="#39393B"/>
<path d="M354.415 112.222V116.889C354.964 117.331 355.522 117.719 356.071 118.045C364.209 122.916 372.994 116.889 372.994 116.889V100.697L356.637 110.854L354.415 112.222Z" fill="#EA9B7A"/>
<path d="M354.415 112.091V116.9C354.964 117.341 355.522 117.73 356.071 118.056C363.005 115.321 368.053 108.076 368.053 108.076L356.629 110.856L354.415 112.091Z" fill="#39393B"/>
<path d="M372.959 112.153C372.959 112.153 378.44 113.071 379.946 119.318C374.606 124.886 369.886 129.704 362.252 131.116V119.936C362.252 119.936 368.991 118.26 372.959 112.153Z" fill="#FAAF3A"/>
<path d="M354.246 113.769C354.246 113.769 349.348 114.819 347.453 121.057C352.386 127.04 355.025 129.29 362.251 131.117V119.937C362.251 119.937 358.222 119.875 354.246 113.769Z" fill="#FAAF3A"/>
<path d="M351.489 200.641L354.659 208.274L356.085 211.706L360.106 221.386L362.054 217.654L362.736 216.321L364.303 213.33L364.985 211.997L366.544 209.006L367.235 207.682L368.793 204.682V204.673L369.484 203.359L370.945 200.535L370.919 200.226L370.688 197.994L370.166 192.92L369.944 190.687L369.422 185.613L369.192 183.381L368.678 178.307L368.448 176.075L367.925 171.001L367.704 168.759L367.181 163.694L366.951 161.453L366.437 156.388L366.207 154.147L365.694 149.082L365.463 146.84L364.941 141.775L364.711 139.534L364.179 134.293L360.291 134.143L360.176 135.016L359.946 136.79L359.415 140.814L359.176 142.587L358.644 146.611L358.405 148.385L357.874 152.408L357.635 154.182L357.103 158.206L356.873 159.979L356.342 164.003L356.103 165.777L355.571 169.801L355.332 171.574L354.801 175.598L354.571 177.381L354.03 181.404L353.8 183.178L353.269 187.193L353.03 188.975L352.498 192.999L352.259 194.773L351.728 198.797L351.498 200.57L351.489 200.641Z" fill="#39393B"/>
<path d="M359.945 136.79L364.94 141.776L364.71 139.535L360.176 135.017L359.945 136.79Z" fill="#585859"/>
<path d="M359.181 142.586L365.699 149.081L365.469 146.839L359.42 140.812L359.181 142.586Z" fill="#585859"/>
<path d="M358.409 148.384L366.441 156.387L366.211 154.146L358.648 146.61L358.409 148.384Z" fill="#585859"/>
<path d="M357.637 154.182L367.183 163.695L366.953 161.453L357.876 152.409L357.637 154.182Z" fill="#585859"/>
<path d="M356.875 159.979L367.928 171L367.706 168.759L357.106 158.206L356.875 159.979Z" fill="#585859"/>
<path d="M356.105 165.777L368.68 178.307L368.45 176.074L356.344 164.003L356.105 165.777Z" fill="#585859"/>
<path d="M355.334 171.575L369.424 185.614L369.194 183.382L355.574 169.801L355.334 171.575Z" fill="#585859"/>
<path d="M354.568 177.381L370.163 192.92L369.942 190.687L354.798 175.598L354.568 177.381Z" fill="#585859"/>
<path d="M353.804 183.178L370.922 200.226L370.692 197.994L354.034 181.404L353.804 183.178Z" fill="#585859"/>
<path d="M353.033 188.976L368.797 204.674L369.487 203.359L353.272 187.193L353.033 188.976Z" fill="#585859"/>
<path d="M352.258 194.774L366.543 209.007L367.234 207.684L352.497 193L352.258 194.774Z" fill="#585859"/>
<path d="M351.498 200.57L364.304 213.33L364.986 211.997L351.728 198.796L351.498 200.57Z" fill="#585859"/>
<path d="M354.662 208.273L356.088 211.706L362.057 217.653L362.739 216.321L354.662 208.273Z" fill="#585859"/>
<path d="M364.181 134.292L362.251 137.16L360.294 134.142L359.957 136.719L362.215 139.022L364.385 136.295L364.181 134.292Z" fill="#585859"/>
<path d="M367.431 129.484L362.25 137.161L357.282 129.484L362.25 123.069L367.431 129.484Z" fill="#39393B"/>
<path d="M370.446 134.733C370.579 134.733 370.711 134.689 370.818 134.601C375.954 130.524 380.32 119.98 380.506 119.53C380.63 119.23 380.488 118.877 380.178 118.753C379.877 118.63 379.523 118.771 379.399 119.08C379.355 119.185 375.237 129.113 370.543 133.269L362.732 122.697C362.617 122.547 362.44 122.45 362.245 122.459C362.05 122.459 361.873 122.556 361.767 122.706L354.479 133.013C353.363 131.01 350.44 125.698 347.987 120.774C347.846 120.483 347.483 120.359 347.19 120.509C346.898 120.65 346.774 121.012 346.925 121.303C350.024 127.524 353.868 134.354 353.903 134.425C354 134.601 354.186 134.716 354.39 134.725C354.594 134.733 354.789 134.636 354.904 134.478L362.263 124.074L369.959 134.486C370.056 134.619 370.198 134.698 370.357 134.725C370.402 134.733 370.428 134.733 370.446 134.733Z" fill="#C77E2E"/>
<path d="M362.263 123.659C362.591 123.659 362.857 123.394 362.857 123.068V120.42C362.857 120.094 362.591 119.829 362.263 119.829C361.936 119.829 361.67 120.094 361.67 120.42V123.068C361.67 123.394 361.936 123.659 362.263 123.659Z" fill="#C77E2E"/>
<path d="M348.568 91.5221C348.568 91.5221 345.902 88.3896 344.397 91.5221C342.891 94.6547 344.052 100.999 348.099 99.9668L348.568 91.5221Z" fill="#D96C63"/>
<path d="M345.717 102.518C345.717 102.518 345.699 112.18 355.786 112.154C365.811 112.136 372.639 104.291 372.993 103.93C373.002 103.921 373.002 103.921 373.002 103.921L373.108 101.891L373.675 91.3552L373.976 85.7254C373.976 85.7254 375.26 75.5866 365.58 73.7335C358.514 72.3834 351.889 73.5482 348.542 77.2279C348.436 77.3426 348.329 77.4661 348.232 77.5896C347.178 78.878 346.505 80.4575 346.328 82.3105L346.018 92.4229L345.938 94.9025L345.717 102.518Z" fill="#EA9B7A"/>
<path d="M357.291 85.169C357.291 85.169 361.525 88.3103 364.04 86.3073C366.555 84.3042 360.692 82.1246 358.761 82.2923C356.84 82.4511 356.034 84.4542 357.291 85.169Z" fill="#39393B"/>
<path d="M352.688 85.169C352.688 85.169 348.455 88.3103 345.94 86.3073C343.425 84.3042 349.288 82.1246 351.218 82.2923C353.149 82.4511 353.946 84.4542 352.688 85.169Z" fill="#39393B"/>
<path d="M356.027 103.78C357.639 103.921 358.852 102.915 358.914 102.862C359.1 102.703 359.118 102.421 358.958 102.236C358.799 102.05 358.515 102.033 358.329 102.192C358.267 102.244 356.868 103.4 355.23 102.668C355.009 102.571 354.743 102.668 354.645 102.897C354.548 103.118 354.645 103.383 354.876 103.48C355.265 103.656 355.655 103.745 356.027 103.78Z" fill="#D96C63"/>
<path d="M360.393 96.8794C360.393 96.8794 354.238 98.1148 351.129 97.8324C351.129 97.8324 352.289 102.394 356.868 101.247C360.437 100.356 360.393 96.8794 360.393 96.8794Z" fill="white"/>
<path d="M348.251 77.5901C349.836 77.0342 350.979 77.5548 353.44 78.6314C357.001 80.1932 360.986 78.7902 364.51 76.9901C368.035 75.1988 370.143 77.696 368.947 79.3285C367.752 80.9698 367.876 82.2934 369.213 84.3759C370.541 86.4583 366.698 87.4378 368.823 89.0703C369.718 89.7585 369.664 90.791 369.301 91.7528C368.903 92.8028 369.833 93.8706 370.931 93.6676C372.082 93.3764 373.694 91.3557 373.694 91.3557L373.995 85.7259C373.995 85.7259 375.279 75.5871 365.6 73.734C358.533 72.3839 351.908 73.5487 348.561 77.2284C348.455 77.3431 348.348 77.4666 348.251 77.5901Z" fill="#39393B"/>
<path d="M359.172 93.6662C359.172 94.3721 360.625 94.9368 362.422 94.9368C364.211 94.9368 365.673 94.3633 365.673 93.6662C365.673 92.9602 364.22 92.3955 362.422 92.3955C360.634 92.3955 359.172 92.9691 359.172 93.6662Z" fill="#D96C63"/>
<path d="M345.954 94.9015C346.202 94.928 346.467 94.9368 346.733 94.9368C348.522 94.9368 349.974 94.3633 349.974 93.6662C349.974 92.9602 348.522 92.3955 346.733 92.3955C346.494 92.3955 346.255 92.4043 346.024 92.4308L345.954 94.9015Z" fill="#D96C63"/>
<path d="M357.781 89.801C357.781 90.7628 358.224 91.5481 358.764 91.5481C359.304 91.5481 359.747 90.7628 359.747 89.801C359.747 88.8391 359.304 88.0538 358.764 88.0538C358.215 88.045 357.781 88.8303 357.781 89.801Z" fill="#39393B"/>
<path d="M348.036 89.8005C348.036 90.7623 348.479 91.5476 349.019 91.5476C349.559 91.5476 350.002 90.7623 350.002 89.8005C350.002 88.8386 349.559 88.0533 349.019 88.0533C348.47 88.0445 348.036 88.8298 348.036 89.8005Z" fill="#39393B"/>
<path d="M369.84 100.01C369.885 100.116 371.16 103.063 372.993 103.928C373.002 103.919 373.002 103.919 373.002 103.919L373.108 101.89C373.108 101.89 371.523 101.616 369.84 100.01Z" fill="#39393B"/>
<path d="M371.609 93.3024C371.609 93.3024 375.488 88.1138 378.322 92.1905C380.66 95.5525 376.241 104.306 371.609 101.306V93.3024Z" fill="#EA9B7A"/>
<path d="M372.14 99.7432C372.344 99.7432 372.512 99.5932 372.539 99.3902C372.973 95.4635 376.267 94.0958 376.409 94.0428C376.612 93.9634 376.71 93.734 376.63 93.5222C376.55 93.3192 376.32 93.2222 376.116 93.3016C375.957 93.3634 372.229 94.8899 371.75 99.302C371.724 99.5226 371.883 99.7167 372.105 99.7432C372.114 99.7432 372.122 99.7432 372.14 99.7432Z" fill="#39393B"/>
<path d="M375.86 97.3365C375.975 97.3365 376.091 97.2836 376.17 97.1865C376.312 97.0189 376.285 96.763 376.108 96.6306C375.949 96.4982 374.523 95.3776 373.319 95.6864C373.106 95.7394 372.973 95.96 373.035 96.1717C373.088 96.3835 373.31 96.5159 373.522 96.4541C374.213 96.2776 375.258 96.9659 375.612 97.2483C375.683 97.3012 375.772 97.3365 375.86 97.3365Z" fill="#39393B"/>
<path d="M354.631 94.6668C354.853 94.6668 355.03 94.4903 355.03 94.2697C355.03 94.0491 354.853 93.8726 354.631 93.8726C353.161 93.8726 352.479 93.0961 352.249 92.7696C353.843 89.5047 355.419 86.2045 355.437 86.178C355.535 85.9839 355.446 85.7456 355.251 85.6486C355.056 85.5515 354.817 85.6398 354.72 85.8339C354.702 85.8692 353.064 89.2841 351.443 92.6196C351.39 92.7255 351.39 92.849 351.443 92.9637C351.47 93.0167 352.267 94.6668 354.631 94.6668Z" fill="#39393B"/>
<path d="M451.115 130.475C451.115 130.475 456.482 135.876 461.786 133.775C466.064 132.072 467.011 126.143 467.224 123.928C467.277 123.398 467.277 123.081 467.277 123.081C467.277 123.081 467.569 122.913 467.968 122.622C468.907 121.933 470.465 120.539 470.297 118.907C470.058 116.577 465.807 117.874 465.807 117.874C465.807 117.874 466.454 115.06 465.196 114.23C463.965 113.418 461.432 114.857 461.432 114.857C461.432 114.857 462.805 111.406 460.927 110.577C458.102 109.324 457.173 113.568 457.049 113.842C457.075 113.533 458.421 100.535 456.181 101.206C454.224 101.788 452.426 112.651 451.965 115.607C451.895 116.074 451.859 116.339 451.859 116.339C451.859 116.339 451.7 116.33 451.434 116.339C450.176 116.374 446.484 116.71 445.802 119.269C444.996 122.375 451.115 130.475 451.115 130.475Z" fill="#EA9B7A"/>
<path d="M462.105 121.294C461.653 122.3 461.423 123.394 461.644 124.171C461.786 124.674 462.105 125.018 462.565 125.159C462.884 125.256 463.291 125.256 463.743 125.177C464.885 124.991 466.302 124.365 467.232 123.915C467.285 123.385 467.285 123.068 467.285 123.068C467.285 123.068 467.578 122.9 467.985 122.609C467.905 122.6 467.817 122.626 467.746 122.662C466.311 123.447 463.708 124.594 462.831 124.321C462.716 124.285 462.574 124.206 462.494 123.924C462.255 123.068 462.902 121.25 463.814 120.182C463.964 120.014 463.956 119.759 463.805 119.6C463.654 119.432 463.398 119.406 463.221 119.547C462.344 120.191 459.802 121.77 458.536 121.365C458.35 121.303 458.323 121.223 458.314 121.179C458.261 120.976 458.341 120.659 458.509 120.297C458.846 119.556 459.528 118.611 460.068 117.994C460.13 117.923 460.165 117.835 460.174 117.756C460.192 117.614 460.139 117.473 460.032 117.376C459.846 117.217 459.572 117.235 459.412 117.42C459.173 117.694 458.332 118.682 457.827 119.706C457.641 120.076 457.508 120.456 457.455 120.8C457.42 121.02 457.429 121.232 457.482 121.418C457.562 121.682 457.756 122.035 458.288 122.203C459.377 122.565 460.927 121.929 462.105 121.294Z" fill="#D96C63"/>
<path d="M455.375 117.596C455.552 117.649 455.676 117.79 455.694 117.975C455.738 118.549 455.871 119.043 456.084 119.334C456.252 119.563 456.411 119.59 456.535 119.59C456.73 119.581 456.978 119.484 457.261 119.325C457.961 118.928 458.847 118.143 459.617 117.375C459.608 117.463 459.573 117.543 459.511 117.613C458.971 118.231 458.289 119.175 457.952 119.916C457.864 119.969 457.775 120.031 457.687 120.075C457.403 120.234 457.138 120.349 456.89 120.419C456.774 120.446 456.677 120.463 456.571 120.463C456.092 120.481 455.676 120.269 455.366 119.846C455.047 119.405 454.87 118.752 454.808 118.037C454.782 117.737 455.065 117.507 455.357 117.587C455.366 117.596 455.366 117.596 455.375 117.596Z" fill="#D96C63"/>
<path d="M449.066 122.512C449.181 122.521 450.89 122.698 452.546 122.415C453.467 122.265 454.371 121.974 454.973 121.436C455.469 120.995 455.735 120.439 455.752 119.786C455.805 117.456 453.414 116.159 451.98 115.594C451.909 116.062 451.873 116.327 451.873 116.327C451.873 116.327 451.714 116.318 451.448 116.327C452.653 116.777 454.911 117.871 454.876 119.759C454.867 120.165 454.707 120.492 454.397 120.774C453.228 121.806 450.217 121.745 449.164 121.63C448.924 121.603 448.703 121.78 448.676 122.018C448.65 122.274 448.827 122.486 449.066 122.512Z" fill="#D96C63"/>
<path d="M458.509 130.885C458.66 130.859 458.792 130.762 458.846 130.612C458.934 130.382 458.819 130.135 458.589 130.047C457.367 129.588 456.534 128.811 456.136 127.761C455.1 125.052 457.039 121.285 457.065 121.249C457.181 121.037 457.092 120.773 456.88 120.658C456.667 120.543 456.401 120.632 456.286 120.843C456.198 121.011 454.143 124.999 455.321 128.07C455.817 129.376 456.818 130.312 458.288 130.867C458.358 130.894 458.438 130.903 458.509 130.885Z" fill="#D96C63"/>
<path d="M393.175 124.172L402.35 132.114C403.82 133.482 405.29 134.832 406.769 136.182C408.239 137.532 409.709 138.873 411.188 140.197C412.667 141.52 414.137 142.835 415.607 144.124C417.077 145.412 418.556 146.674 420.017 147.883C421.469 149.1 422.931 150.274 424.294 151.28C424.967 151.783 425.632 152.242 426.163 152.586L426.517 152.815L426.659 152.904C426.694 152.921 426.694 152.93 426.712 152.948C426.765 153.001 426.801 153.036 426.827 153.071C426.871 153.133 426.871 153.186 426.925 153.23C426.978 153.283 427.119 153.318 427.376 153.301C427.89 153.265 428.846 152.939 429.953 152.304C431.051 151.668 432.273 150.75 433.478 149.674C434.682 148.589 435.913 147.371 437.1 146.047C439.482 143.391 441.776 140.4 443.945 137.267C446.124 134.135 447.665 131.717 449.631 128.381C452.81 132.211 457.699 134.108 463.003 133.473C461.507 137.523 459.78 141.459 457.831 145.368C455.857 149.259 453.678 153.115 451.03 156.892C449.702 158.78 448.267 160.66 446.611 162.495C444.955 164.331 443.113 166.14 440.864 167.852C439.739 168.699 438.508 169.528 437.118 170.278C435.727 171.019 434.186 171.699 432.468 172.211C430.75 172.714 428.846 173.058 426.863 173.093C424.879 173.137 422.824 172.872 420.92 172.334C419.964 172.069 419.043 171.743 418.175 171.364L417.537 171.072L416.997 170.808C416.811 170.719 416.661 170.64 416.492 170.552C416.333 170.463 416.156 170.375 416.005 170.296C414.765 169.625 413.703 168.981 412.684 168.337C410.665 167.057 408.85 165.787 407.07 164.498C405.299 163.21 403.598 161.904 401.916 160.598C400.242 159.292 398.586 157.969 396.965 156.636C395.345 155.295 393.733 153.962 392.148 152.604C390.562 151.245 388.995 149.877 387.427 148.5C385.878 147.115 384.328 145.73 382.796 144.327L380.502 142.209L379.369 141.132C378.988 140.77 378.616 140.417 378.217 140.029L393.175 124.172Z" fill="#FAAF3A"/>
<path d="M401.933 161.683C401.827 161.683 401.712 161.648 401.614 161.586C395.557 157.359 384.779 148.456 384.673 148.368C384.434 148.173 384.407 147.829 384.602 147.591C384.797 147.353 385.142 147.326 385.381 147.52C385.488 147.609 396.23 156.486 402.252 160.686C402.5 160.862 402.562 161.207 402.385 161.454C402.278 161.604 402.11 161.683 401.933 161.683Z" fill="#C77E2E"/>
<path d="M389.402 152.047C389.375 152.047 389.349 152.047 389.322 152.038L385.054 151.42C384.753 151.376 384.54 151.094 384.584 150.794C384.629 150.494 384.912 150.282 385.213 150.326L389.482 150.944C389.783 150.988 389.995 151.27 389.951 151.57C389.907 151.853 389.668 152.047 389.402 152.047Z" fill="#C77E2E"/>
<path d="M460.026 140.337C460.247 140.222 460.371 139.975 460.318 139.719C460.256 139.419 459.955 139.225 459.645 139.287C451.604 141.034 447.601 133.392 447.565 133.313C447.424 133.039 447.087 132.924 446.804 133.066C446.804 133.066 446.804 133.066 446.795 133.066C446.52 133.207 446.414 133.542 446.556 133.816C446.6 133.904 451.002 142.304 459.884 140.372C459.937 140.381 459.981 140.363 460.026 140.337Z" fill="#C77E2E"/>
<path d="M455.902 140.486C456.017 140.425 456.106 140.336 456.159 140.213L458.807 134.054C458.931 133.771 458.798 133.436 458.514 133.312C458.231 133.189 457.895 133.321 457.771 133.604L455.123 139.763C454.999 140.045 455.132 140.381 455.415 140.504C455.583 140.575 455.751 140.557 455.902 140.486Z" fill="#C77E2E"/>
<path d="M451.163 134.566C451.411 135.043 452.004 135.228 452.482 134.981C452.96 134.734 453.146 134.143 452.898 133.666C452.65 133.19 452.057 133.004 451.579 133.252C451.101 133.507 450.906 134.09 451.163 134.566Z" fill="#C77E2E"/>
<path d="M425.648 160.147C425.798 160.068 425.913 159.918 425.94 159.741C425.949 159.706 426.542 156.194 427.587 154.147C427.729 153.873 427.623 153.529 427.339 153.388C427.065 153.247 426.719 153.361 426.578 153.635C425.453 155.841 424.851 159.406 424.824 159.556C424.771 159.865 424.983 160.147 425.285 160.2C425.426 160.226 425.55 160.2 425.648 160.147Z" fill="#C77E2E"/>
<path d="M429.315 158.885C429.35 158.867 429.386 158.841 429.421 158.815C429.66 158.612 429.687 158.259 429.492 158.02C429.474 158.003 427.907 156.114 427.535 154.279C427.473 153.979 427.172 153.776 426.87 153.838C426.569 153.9 426.366 154.2 426.428 154.5C426.862 156.617 428.553 158.647 428.633 158.735C428.792 158.947 429.084 159 429.315 158.885Z" fill="#C77E2E"/>
<path d="M103.448 230.963L116.404 278.172L111.781 272.869C113.49 273.778 115.474 274.475 117.661 274.96C119.849 275.454 122.24 275.737 124.737 275.86C127.234 275.992 129.838 275.966 132.504 275.86C135.169 275.745 137.888 275.551 140.651 275.313H140.669C144.742 274.969 148.329 277.978 148.674 282.037C149.002 285.911 146.248 289.334 142.466 289.952C139.615 290.402 136.719 290.835 133.752 291.179C130.777 291.523 127.73 291.779 124.578 291.849C121.425 291.92 118.157 291.796 114.774 291.311C111.4 290.826 107.902 289.943 104.484 288.479C102.296 287.534 100.738 285.752 100.029 283.661L99.8609 283.166L84.3188 236.743C82.5742 231.528 85.3993 225.881 90.6419 224.142C95.8757 222.404 101.543 225.219 103.288 230.443C103.35 230.61 103.403 230.804 103.448 230.963Z" fill="#EA9B7A"/>
<path d="M108.438 402.093C108.243 402.093 108.048 402.058 107.853 401.987L39.982 377.606C39.0964 377.289 38.627 376.309 38.9547 375.427C39.2735 374.544 40.2565 374.077 41.1421 374.403L109.013 398.784C109.899 399.102 110.368 400.081 110.041 400.964C109.793 401.661 109.137 402.093 108.438 402.093Z" fill="#CED3E6"/>
<path d="M37.7446 402.097C37.045 402.097 36.3896 401.665 36.1328 400.968C35.814 400.086 36.2745 399.106 37.1601 398.78L105.837 373.993C106.723 373.675 107.706 374.134 108.034 375.016C108.352 375.899 107.892 376.878 107.006 377.205L38.3291 401.992C38.1342 402.062 37.9394 402.097 37.7446 402.097Z" fill="#CED3E6"/>
<path d="M114.474 445.673C113.03 445.673 111.773 444.606 111.569 443.141L99.3125 351.926H48.0194L35.9488 443.141C35.7363 444.738 34.2662 445.868 32.6633 445.656C31.0604 445.444 29.9268 443.979 30.1394 442.382L42.5465 348.644C42.7413 347.188 43.9811 346.103 45.4512 346.103H101.89C103.36 346.103 104.599 347.188 104.794 348.635L117.396 442.373C117.609 443.97 116.484 445.444 114.881 445.656C114.739 445.665 114.607 445.673 114.474 445.673Z" fill="white"/>
<path d="M85.5284 349.011H48.8828C37.2728 349.011 24.8392 342.675 23.0503 331.248C20.6681 315.956 20.0747 301.158 20.7389 287.569C21.4917 272.206 28.8597 257.911 40.9746 248.381C40.9746 248.381 48.2984 280.174 39.0883 324.057C42.6129 340.725 85.5284 349.011 85.5284 349.011Z" fill="white"/>
<path d="M77.899 162.551C77.899 162.551 73.5419 152.086 62.0027 154.062C53.9439 155.439 50.5078 165.445 50.9772 180.905C51.6679 203.398 44.0342 216.952 44.0342 216.952L54.1653 219.246C54.1741 219.237 79.9713 180.685 77.899 162.551Z" fill="#39393B"/>
<path d="M170.335 406.593H153.961C153.961 406.593 150.171 388.486 148.904 378.338C147.629 368.182 146.974 344.118 146.974 344.118C146.974 344.118 133.929 348.345 106.618 346.748C46.1054 343.227 69.0509 298.93 69.0509 298.93C71.0966 301.745 83.6188 299.795 92.1824 301.136C118.458 303.651 141.235 313.922 154.909 319.799C158.203 321.211 161.125 322.711 163.694 324.291C166.988 326.311 169.051 332.462 170.3 340.536C174.028 364.82 170.335 406.593 170.335 406.593Z" fill="#39393B"/>
<path d="M155.983 397.873C155.709 397.873 155.47 397.679 155.408 397.405C153.043 385.757 152.255 371.26 151.617 359.612C151.086 349.949 150.59 340.825 149.341 339.731C148.332 338.84 144.143 339.537 138.847 340.411C128.3 342.158 112.359 344.787 94.7893 340.719C85.2161 338.496 78.1757 333.863 73.8717 326.945C66.4417 315.015 69.8334 300.217 69.8689 300.067C69.9397 299.749 70.2585 299.555 70.5773 299.634C70.8962 299.705 71.091 300.023 71.0113 300.34C70.9759 300.482 67.708 314.821 74.8813 326.336C79.017 332.981 85.8094 337.437 95.0638 339.581C112.412 343.605 128.211 340.993 138.67 339.263C144.931 338.231 148.713 337.604 150.138 338.858C151.679 340.216 152.113 346.887 152.804 359.55C153.442 371.162 154.23 385.607 156.577 397.176C156.639 397.493 156.435 397.802 156.116 397.864C156.063 397.864 156.028 397.864 155.983 397.873Z" fill="#585859"/>
<path d="M170.641 398.169H170.632L152.424 397.781C152.096 397.772 151.84 397.507 151.848 397.181C151.857 396.854 152.123 396.598 152.451 396.607L170.658 396.995C170.986 397.004 171.243 397.269 171.234 397.595C171.216 397.922 170.959 398.169 170.641 398.169Z" fill="#585859"/>
<path d="M169.881 427.493H158.324L156.101 413.983L154.879 406.589H169.234L169.464 413.983L169.881 427.493Z" fill="#EA9B7A"/>
<path d="M169.886 427.492H158.329L156.673 417.433L156.106 413.982H169.47L169.576 417.556L169.886 427.492Z" fill="#FAAF3A"/>
<path d="M169.576 417.556L156.673 417.433L156.106 413.982H169.47L169.576 417.556Z" fill="#C77E2E"/>
<path d="M198.405 445.673H154.701C154.373 445.082 154.196 444.252 154.125 443.255C153.851 439.567 155.029 433.69 155.604 429.984C155.675 429.551 155.737 429.145 155.781 428.784C155.861 428.166 155.914 427.645 155.914 427.266C155.914 424.239 158.598 424.76 158.598 424.76C163.017 429.084 168.029 422.598 170.951 424.724C170.951 424.724 171.067 424.813 171.341 425.016C171.589 425.21 171.961 425.51 172.475 425.942C173.219 426.56 174.264 427.46 175.68 428.731C179.152 431.845 185.05 433.893 190.071 435.984C190.709 436.249 191.302 436.513 191.86 436.787C192.276 436.99 192.675 437.193 193.047 437.387C197.156 439.593 198.458 441.711 198.759 443.246C199.042 444.729 198.405 445.673 198.405 445.673Z" fill="#0875F7"/>
<path d="M193.047 437.405C191.923 438.296 189.417 440.088 187.406 440.088C187.318 440.088 187.229 440.088 187.141 440.079C185.724 439.964 180.516 437.414 176.274 435.093C173.848 433.761 171.625 432.455 170.031 431.405C167.419 429.684 166.958 429.031 166.861 428.572C166.48 426.851 169.331 425.66 171.333 425.034C171.581 425.228 171.953 425.528 172.466 425.96C169.987 426.631 167.941 427.69 168.039 428.299C168.286 428.81 170.872 430.769 177.054 434.149C181.774 436.726 186.246 438.799 187.238 438.887C188.584 438.993 190.559 437.776 191.852 436.814C192.286 436.999 192.676 437.202 193.047 437.405Z" fill="#084FC7"/>
<path d="M198.401 445.671H154.697C154.37 445.079 154.192 444.25 154.122 443.253H198.764C199.039 444.727 198.401 445.671 198.401 445.671Z" fill="#084FC7"/>
<path d="M159.144 445.673H157.842C159.135 444.2 160.348 441.932 160.189 438.702C159.977 434.396 157.391 431.502 155.584 429.984C155.655 429.552 155.717 429.146 155.761 428.784C157.701 430.258 160.968 433.496 161.225 438.649C161.385 441.747 160.366 444.05 159.144 445.673Z" fill="#084FC7"/>
<path d="M174.934 431.308C174.615 431.308 174.314 431.088 174.235 430.761C174.137 430.373 174.376 429.985 174.757 429.888L177.485 429.208C177.874 429.111 178.264 429.349 178.362 429.729C178.459 430.117 178.22 430.505 177.839 430.602L175.111 431.282C175.058 431.308 174.996 431.308 174.934 431.308Z" fill="white"/>
<path d="M172.225 429.045C171.906 429.045 171.605 428.824 171.525 428.498C171.428 428.109 171.667 427.721 172.048 427.624L174.775 426.945C175.165 426.847 175.555 427.086 175.652 427.465C175.749 427.853 175.51 428.242 175.13 428.339L172.402 429.018C172.34 429.036 172.287 429.045 172.225 429.045Z" fill="white"/>
<path d="M177.67 432.896C177.351 432.896 177.05 432.675 176.971 432.349C176.873 431.96 177.112 431.572 177.493 431.475L180.221 430.796C180.61 430.699 181 430.937 181.097 431.316C181.195 431.705 180.956 432.093 180.575 432.19L177.847 432.869C177.785 432.887 177.723 432.896 177.67 432.896Z" fill="white"/>
<path d="M180.401 434.411C180.082 434.411 179.781 434.19 179.701 433.864C179.604 433.476 179.843 433.087 180.223 432.99L182.951 432.311C183.341 432.214 183.73 432.452 183.828 432.831C183.925 433.22 183.686 433.608 183.305 433.705L180.578 434.384C180.516 434.402 180.463 434.411 180.401 434.411Z" fill="white"/>
<path d="M183.367 435.818C183.049 435.818 182.747 435.597 182.668 435.27C182.57 434.882 182.809 434.494 183.19 434.406L185.918 433.726C186.308 433.629 186.697 433.867 186.795 434.247C186.892 434.635 186.653 435.023 186.272 435.12L183.545 435.8C183.483 435.809 183.429 435.818 183.367 435.818Z" fill="white"/>
<path d="M186.602 437.019C186.283 437.019 185.982 436.799 185.902 436.472C185.805 436.084 186.044 435.696 186.425 435.599L189.152 434.919C189.542 434.822 189.932 435.06 190.029 435.44C190.126 435.828 189.887 436.216 189.506 436.305L186.779 436.984C186.717 437.01 186.655 437.019 186.602 437.019Z" fill="white"/>
<path d="M38.7463 284.878C38.7463 284.878 38.2327 288.398 42.9617 289.387L92.2712 291.028C92.2712 291.028 95.601 289.36 94.9988 285.248C94.9899 285.239 74.1698 273.592 38.7463 284.878Z" fill="#084FC7"/>
<path d="M92.9371 301.123C67.3436 315.153 39.3945 303.858 39.3945 303.858C40.7583 300.143 41.7768 295.952 42.5118 292.14C43.362 287.702 43.8402 283.784 44.0616 281.728C54.9454 281.136 81.637 279.998 92.0958 282.469L92.1755 286.643L92.9371 301.123Z" fill="#EA9B7A"/>
<path d="M74.0274 294.402C73.8415 295.716 73.2393 296.722 72.699 296.643C72.15 296.564 71.8666 295.434 72.0526 294.119C72.2385 292.804 72.8407 291.799 73.3809 291.878C73.93 291.957 74.2223 293.087 74.0274 294.402Z" fill="#D96C63"/>
<path d="M92.173 286.643C81.2714 285.981 59.8313 285.751 42.5093 292.131C43.3594 287.693 43.8377 283.775 44.0591 281.719C54.9429 281.128 81.6345 279.989 92.0933 282.46L92.173 286.643Z" fill="#D96C63"/>
<path d="M104.333 266.47C104.227 266.788 104.103 267.079 103.97 267.353C103.917 267.459 103.864 267.564 103.811 267.662C102.438 270.194 100.322 272.391 98.5417 273.953C98.1698 274.28 97.8155 274.571 97.4879 274.836C96.8325 275.365 96.2746 275.78 95.8938 276.053C95.5396 276.3 95.3359 276.433 95.3359 276.433C95.3359 276.459 95.3359 276.477 95.327 276.512C95.3093 276.697 95.2916 276.9 95.2739 277.112C95.2119 277.915 95.1588 278.868 95.1234 279.962C95.0879 280.836 95.0614 281.798 95.0437 282.839C95.0348 283.607 95.0171 284.41 95.0082 285.239C80.5466 278.798 50.7555 282.865 38.7558 284.877C38.9772 283.845 39.172 282.83 39.358 281.842C40.2081 277.28 40.6864 273.177 40.8723 269.497C41.1557 264.026 40.6775 255.802 39.5085 247.304C39.4377 246.748 39.358 246.201 39.2783 245.654C39.2251 245.293 39.172 244.94 39.11 244.578C38.7026 241.913 38.2244 239.239 37.6842 236.645C35.3197 225.332 36.9757 213.464 48.4884 212.061C49.3208 211.955 50.1444 211.867 50.9503 211.779C56.3701 211.205 60.8335 211.002 62.0733 210.958C62.3035 210.949 62.4186 210.949 62.4186 210.949L84.6646 217.391L86.7811 218C87.9944 218.388 89.1191 218.767 90.1641 219.138C90.6069 219.297 91.0408 219.456 91.4482 219.606C92.5286 220.012 93.5027 220.4 94.3972 220.797C96.1772 221.582 97.5941 222.35 98.7011 223.135C103.581 226.585 102.828 230.486 102.704 238.189C102.704 238.224 102.704 238.26 102.704 238.295C102.704 238.392 102.704 238.489 102.704 238.595C102.704 238.639 102.704 238.683 102.704 238.727C102.704 239.045 102.704 239.354 102.704 239.672C102.713 240.669 102.748 241.657 102.81 242.645C102.89 244.101 103.023 245.548 103.182 246.96C103.244 247.525 103.306 248.09 103.377 248.654C103.439 249.184 103.51 249.705 103.581 250.225C104.44 256.958 105.547 262.87 104.333 266.47Z" fill="#0875F7"/>
<path d="M102.679 238.296C102.679 238.393 102.679 238.49 102.679 238.596C102.679 238.64 102.679 238.684 102.679 238.728C102.679 239.046 102.679 239.355 102.679 239.672L98.0033 242.593C97.8616 242.681 97.7022 242.708 97.5428 242.681C97.3657 242.655 97.2063 242.549 97.1 242.39C96.9052 242.081 97.0026 241.684 97.3037 241.49L102.263 238.393C102.396 238.305 102.537 238.278 102.679 238.296Z" fill="#084FC7"/>
<path d="M71.86 263.242C71.6829 263.242 71.5058 263.171 71.3729 263.03C71.1338 262.765 71.1515 262.351 71.4172 262.112L75.7655 258.212C76.0311 257.974 76.4474 257.992 76.6865 258.256C76.9256 258.521 76.9079 258.936 76.6422 259.174L72.294 263.074C72.17 263.189 72.0194 263.242 71.86 263.242Z" fill="#084FC7"/>
<path d="M103.545 250.217L100.57 252.891C100.446 253.006 100.286 253.058 100.136 253.058C99.9588 253.058 99.7817 252.988 99.6488 252.847C99.4097 252.582 99.4274 252.167 99.6931 251.929L103.342 248.655C103.413 249.176 103.483 249.697 103.545 250.217Z" fill="#084FC7"/>
<path d="M63.037 247.561C62.9396 247.411 62.8953 247.225 62.9396 247.04C63.0193 246.687 63.3735 246.475 63.7277 246.555L69.4221 247.896C69.7763 247.975 69.9888 248.328 69.9091 248.681C69.8294 249.034 69.4752 249.246 69.121 249.167L63.4266 247.825C63.2584 247.781 63.1255 247.684 63.037 247.561Z" fill="#084FC7"/>
<path d="M42.7238 258.688C42.5467 258.688 42.3696 258.618 42.2367 258.476C41.9976 258.212 42.0153 257.797 42.281 257.559L46.6292 253.658C46.8949 253.42 47.3111 253.438 47.5502 253.703C47.7893 253.967 47.7716 254.382 47.5059 254.62L43.1577 258.521C43.0337 258.635 42.8743 258.688 42.7238 258.688Z" fill="#084FC7"/>
<path d="M93.3435 257.762C93.3966 257.594 93.5295 257.444 93.6977 257.373C94.0254 257.232 94.415 257.382 94.5567 257.709L96.8947 263.056C97.0364 263.383 96.8858 263.771 96.5581 263.912C96.2305 264.053 95.8408 263.903 95.6991 263.577L93.3612 258.229C93.2992 258.071 93.2903 257.912 93.3435 257.762Z" fill="#084FC7"/>
<path d="M104.332 266.471C104.226 266.789 104.102 267.08 103.969 267.353C103.916 267.459 103.863 267.565 103.81 267.662L100.631 266.665C100.471 266.612 100.347 266.506 100.268 266.374C100.179 266.224 100.144 266.03 100.206 265.853C100.312 265.509 100.684 265.324 101.02 265.43L104.332 266.471Z" fill="#084FC7"/>
<path d="M86.3716 266.939C86.5487 266.922 86.7346 266.975 86.8763 267.107C87.142 267.345 87.1597 267.76 86.9206 268.025L82.9886 272.34C82.7495 272.604 82.3333 272.622 82.0676 272.384C81.8019 272.146 81.7842 271.731 82.0233 271.466L85.9553 267.151C86.0705 267.019 86.221 266.948 86.3716 266.939Z" fill="#084FC7"/>
<path d="M84.0633 256.978C83.8862 256.952 83.7268 256.846 83.6205 256.687C83.4257 256.387 83.5231 255.981 83.8242 255.787L88.7835 252.689C89.0846 252.495 89.4919 252.592 89.6868 252.892C89.8816 253.192 89.7842 253.598 89.4831 253.792L84.5238 256.89C84.3732 256.978 84.2138 257.004 84.0633 256.978Z" fill="#084FC7"/>
<path d="M87.216 238.198C87.3311 238.33 87.4019 238.507 87.3754 238.701C87.3399 239.054 87.0123 239.319 86.658 239.275L80.8397 238.639C80.4855 238.604 80.2198 238.278 80.2641 237.925C80.2995 237.572 80.6272 237.307 80.9814 237.351L86.7997 237.986C86.968 238.004 87.1097 238.083 87.216 238.198Z" fill="#084FC7"/>
<path d="M78.7562 225.633C78.8004 225.457 78.9156 225.307 79.0838 225.218C79.4026 225.051 79.8012 225.166 79.9694 225.483L82.7413 230.619C82.9096 230.936 82.7944 231.334 82.4756 231.501C82.1568 231.669 81.7583 231.554 81.59 231.237L78.8182 226.101C78.7385 225.942 78.7207 225.783 78.7562 225.633Z" fill="#084FC7"/>
<path d="M98.5314 273.954C98.1594 274.281 97.8052 274.572 97.4775 274.837L96.7159 272.895C96.6539 272.737 96.6539 272.578 96.7159 272.428C96.7779 272.26 96.9108 272.119 97.0879 272.048C97.4244 271.916 97.8052 272.084 97.938 272.41L98.5314 273.954Z" fill="#084FC7"/>
<path d="M45.0435 264.08C44.9549 263.921 44.9372 263.736 45.0081 263.55C45.1321 263.215 45.504 263.039 45.8405 263.162L51.3489 265.139C51.6854 265.262 51.8625 265.633 51.7385 265.968C51.6146 266.303 51.2426 266.48 50.9061 266.356L45.3977 264.38C45.2383 264.327 45.1232 264.212 45.0435 264.08Z" fill="#084FC7"/>
<path d="M47.7417 271.493C47.9188 271.493 48.0959 271.572 48.2287 271.713C48.4678 271.978 48.4413 272.393 48.1756 272.631L43.7919 276.496C43.5263 276.734 43.11 276.708 42.8709 276.443C42.6318 276.178 42.6584 275.764 42.9241 275.525L47.3077 271.66C47.4317 271.546 47.5823 271.493 47.7417 271.493Z" fill="#084FC7"/>
<path d="M55.684 277.625C55.7992 277.767 55.8523 277.952 55.8169 278.137C55.7549 278.49 55.4184 278.728 55.0641 278.667L49.299 277.687C48.9447 277.625 48.7056 277.29 48.7676 276.937C48.8296 276.584 49.1661 276.346 49.5204 276.408L55.2855 277.387C55.4449 277.422 55.5866 277.511 55.684 277.625Z" fill="#084FC7"/>
<path d="M60.5041 223.039C60.4598 222.871 60.4775 222.677 60.5838 222.518C60.7786 222.218 61.186 222.13 61.4871 222.324L66.4021 225.483C66.7032 225.677 66.7917 226.083 66.5969 226.383C66.4021 226.683 65.9947 226.771 65.6936 226.577L60.7786 223.418C60.6458 223.33 60.5484 223.189 60.5041 223.039Z" fill="#084FC7"/>
<path d="M94.0609 226.763C94.2203 226.675 94.4063 226.657 94.5923 226.719C94.9288 226.843 95.1059 227.213 94.9908 227.549L93.0336 233.046C92.9097 233.381 92.5377 233.558 92.2012 233.443C91.8647 233.32 91.6876 232.949 91.8027 232.614L93.7598 227.116C93.813 226.966 93.9192 226.843 94.0609 226.763Z" fill="#084FC7"/>
<path d="M91.4287 219.606L88.4089 223.471C88.1875 223.753 87.7801 223.806 87.4967 223.585C87.2133 223.365 87.1602 222.959 87.3816 222.677L90.1446 219.147C90.5874 219.297 91.0125 219.447 91.4287 219.606Z" fill="#084FC7"/>
<path d="M61.8789 272.941C61.9409 273.127 62.1003 273.259 62.2774 273.294C62.366 273.312 62.4634 273.312 62.5519 273.277C62.6494 273.241 72.1163 270.188 82.0703 274.3C87.127 276.392 91.6257 277.186 95.2655 277.115C95.2832 276.903 95.3009 276.709 95.3186 276.515C95.3186 276.489 95.3275 276.462 95.3275 276.445C95.3275 276.445 95.5312 276.312 95.8854 276.065C92.3076 276.242 87.7292 275.483 82.4776 273.321C72.1428 269.05 62.6139 272.138 62.2154 272.271C61.9409 272.359 61.7903 272.659 61.8789 272.941Z" fill="#084FC7"/>
<path d="M84.6449 217.392C83.3963 219.315 80.8281 221.495 75.6208 221.124C68.4387 220.604 63.7097 213.774 62.0625 210.968C62.2839 210.959 62.4079 210.959 62.4079 210.959L84.6449 217.392Z" fill="#084FC7"/>
<path d="M77.0035 230.054C77.216 230.098 77.4286 230.124 77.6411 230.142C79.6248 230.301 81.2366 229.727 82.4233 228.439C85.8771 224.68 84.4601 216.103 84.3981 215.741C84.345 215.45 84.0705 215.256 83.7871 215.309C83.4948 215.362 83.3 215.635 83.3531 215.918C83.3708 216.006 84.7435 224.345 81.644 227.724C80.6787 228.774 79.3946 229.224 77.7385 229.092C70.7778 228.536 62.9758 210.914 62.8961 210.738C62.781 210.473 62.4622 210.35 62.1965 210.464C61.9308 210.579 61.8068 210.897 61.922 211.161C62.2319 211.894 69.6265 228.571 77.0035 230.054Z" fill="white"/>
<path d="M98.6861 223.135C98.2256 228.218 99.4831 236.61 102.777 242.645C102.698 241.339 102.662 240.033 102.68 238.727C102.68 238.683 102.68 238.639 102.68 238.595C102.68 238.463 102.689 238.33 102.689 238.198C102.813 230.486 103.566 226.585 98.6861 223.135Z" fill="#EA9B7A"/>
<path d="M57.7709 232.085C55.2205 241.897 45.8864 249.768 39.5102 247.315C39.4304 246.768 39.3596 246.212 39.2799 245.665C39.2268 245.303 39.1736 244.95 39.1205 244.589C38.7131 241.924 38.2349 239.25 37.6947 236.656C35.3302 225.343 36.9951 213.475 48.4989 212.072C49.3313 211.966 50.1549 211.878 50.9608 211.79C56.6994 214.234 60.7022 220.781 57.7709 232.085Z" fill="#EA9B7A"/>
<path d="M59.0807 224.602L74.0294 279.082L68.6981 272.958C70.673 274 72.9578 274.811 75.4906 275.376C78.0145 275.941 80.7775 276.267 83.6557 276.417C86.5427 276.567 89.5448 276.541 92.6178 276.417C95.6908 276.294 98.8346 276.064 102.023 275.791H102.04C106.743 275.394 110.879 278.862 111.277 283.547C111.658 288.012 108.479 291.974 104.104 292.68C100.818 293.201 97.4708 293.695 94.0436 294.092C90.6164 294.489 87.1006 294.78 83.452 294.868C79.8122 294.948 76.0396 294.815 72.1431 294.251C68.2553 293.686 64.2171 292.68 60.2674 290.977C57.7434 289.892 55.9457 287.827 55.1221 285.418L54.9361 284.853L36.9941 231.273C34.975 225.255 38.2428 218.743 44.2825 216.731C50.3222 214.719 56.8578 217.975 58.877 223.993C58.9567 224.179 59.0275 224.408 59.0807 224.602Z" fill="#EA9B7A"/>
<path d="M65.7745 277.333C65.624 277.333 65.4734 277.254 65.3937 277.112C65.2698 276.901 65.3495 276.636 65.562 276.512C65.7037 276.433 68.9715 274.597 72.3899 274.333C72.6378 274.315 72.8504 274.492 72.8681 274.739C72.8858 274.986 72.7087 275.198 72.4607 275.215C69.246 275.462 66.0314 277.262 66.0048 277.28C65.9251 277.315 65.8454 277.333 65.7745 277.333Z" fill="#D96C63"/>
<path d="M71.2037 275.365C71.124 275.365 71.0443 275.347 70.9735 275.303C68.91 274.059 66.4127 273.865 66.3861 273.865C66.1382 273.847 65.961 273.636 65.9788 273.397C65.9965 273.15 66.2002 272.974 66.4481 272.991C66.5544 273 69.1846 273.194 71.4251 274.553C71.6377 274.677 71.6996 274.95 71.5757 275.162C71.5048 275.286 71.3543 275.365 71.2037 275.365Z" fill="#D96C63"/>
<path d="M84.54 246.653C91.1554 247.986 94.0512 241.174 94.0778 241.103C94.1929 240.83 94.0601 240.521 93.7856 240.415C93.511 240.3 93.2011 240.432 93.0948 240.706C92.9885 240.962 90.4912 246.777 84.7526 245.621C78.7217 244.403 67.4748 232.588 67.3685 232.464C67.1648 232.253 66.8283 232.244 66.6158 232.447C66.4032 232.65 66.3944 232.985 66.5981 233.197C67.0586 233.682 78.1815 245.365 84.54 246.653Z" fill="#084FC7"/>
<path d="M74.132 203.741C74.132 203.741 63.5139 201.747 60.5206 191.07C57.669 180.904 59.8652 175.627 62.832 170.139C65.0636 166 72.1483 160.415 82.0757 162.418C92.1006 164.439 99.6015 169.574 100.708 177.789C102.781 193.161 90.3294 211.912 74.132 203.741Z" fill="#39393B"/>
<path d="M61.0261 192.719C60.8313 192.719 60.6453 192.622 60.5479 192.436C60.353 192.101 55.8897 184.098 59.6003 173.562C61.9205 166.979 66.4813 164.041 69.9085 162.726C73.6103 161.305 76.7187 161.446 76.8515 161.446C77.1526 161.464 77.3917 161.72 77.374 162.029C77.3563 162.329 77.1083 162.567 76.7984 162.549C76.7718 162.549 73.752 162.426 70.2628 163.767C65.6223 165.558 62.3899 168.973 60.6453 173.924C57.1118 183.965 61.4689 191.81 61.5132 191.889C61.6637 192.154 61.5752 192.489 61.3095 192.639C61.2121 192.692 61.1147 192.719 61.0261 192.719Z" fill="#FAAF3A"/>
<path d="M94.7384 192.898C94.7384 192.898 98.1922 190.18 99.1043 193.78C100.016 197.38 97.4483 203.778 93.4277 201.836L94.7384 192.898Z" fill="#D96C63"/>
<path d="M91.3586 199.502C89.6406 200.067 88.1262 201.585 87.7365 203.464C87.1698 206.27 88.9941 209.006 91.8014 209.579C94.6175 210.144 97.3629 208.326 97.9385 205.529C98.3636 203.429 97.4514 201.364 95.7777 200.226C95.2197 199.838 94.5733 199.564 93.8648 199.423C93.8471 199.423 93.8294 199.414 93.8117 199.414C93.7142 199.767 93.7497 200.049 93.9534 200.27C94.5201 200.42 95.0338 200.676 95.4854 201.011C96.7872 202 97.4868 203.667 97.1415 205.37C96.6632 207.735 94.3342 209.271 91.9608 208.794C89.5874 208.318 88.0465 205.997 88.5247 203.632C88.8789 201.911 90.1542 200.694 91.7571 200.305L91.3586 199.502Z" fill="#FAAF3A"/>
<path d="M84.2637 208.319L82.8202 217.337C82.8202 217.337 76.0455 224.229 63.6738 211.866C66.9948 209.405 68.2612 203.687 67.8715 199.998C67.8715 199.998 68.8457 200.58 70.3511 201.939C70.6434 202.204 71.0242 202.407 71.3873 202.663C74.6551 204.869 79.6675 207.754 84.2637 208.319Z" fill="#EA9B7A"/>
<path d="M84.2636 208.316L83.5817 212.587C79.8711 210.937 73.3089 207.416 70.3511 201.928C70.6699 202.157 71.0241 202.395 71.3872 202.651C74.655 204.866 79.6674 207.752 84.2636 208.316Z" fill="#39393B"/>
<path d="M98.0822 190.715C97.8873 191.668 97.7102 192.577 97.5242 193.441C97.3294 194.377 97.1434 195.259 96.9575 196.089C95.5848 202.327 94.4601 205.672 92.6358 206.925C83.3991 213.252 68.3707 200.439 67.8837 200.024C67.8748 200.015 67.8748 200.015 67.8748 200.015C67.866 199.283 67.866 198.551 67.8748 197.836C67.9899 191.765 69.0261 186.312 70.6733 181.273C71.4969 175.767 75.7831 171.355 81.3003 170.525C87.0212 169.669 91.3251 172.97 94.0173 174.426C98.0822 176.632 99.6674 182.764 98.0822 190.715Z" fill="#EA9B7A"/>
<path d="M70.9818 175.608C70.9818 175.608 77.4466 163.219 90.3407 166.678C103.235 170.137 103.917 176.102 104.147 179.085C104.377 182.067 97.4697 176.782 97.4697 176.782C97.4697 176.782 97.2306 182.747 94.9281 180.911C92.103 178.652 88.9504 173.79 88.9504 173.79C88.9504 173.79 81.2723 181.308 73.9751 179.279C69.8305 178.132 70.9818 175.608 70.9818 175.608Z" fill="#39393B"/>
<path d="M86.8283 202.866C85.1545 202.866 84.0032 201.71 83.9501 201.648C83.773 201.463 83.773 201.172 83.959 200.995C84.1449 200.819 84.4283 200.819 84.6054 201.004C84.6674 201.066 85.9958 202.38 87.7493 201.78C87.9884 201.701 88.2541 201.825 88.3338 202.063C88.4135 202.301 88.2895 202.566 88.0504 202.645C87.6164 202.804 87.2091 202.866 86.8283 202.866Z" fill="#D96C63"/>
<path d="M82.9639 195.365C82.9639 195.365 89.1807 197.201 92.4043 197.201C92.4043 197.201 90.7925 201.789 86.1874 200.183C82.6008 198.939 82.9639 195.365 82.9639 195.365Z" fill="white"/>
<path d="M94.5213 182.473C94.5213 182.473 92.9096 182.305 93.1664 183.867C93.4321 185.429 96.9301 184.476 98.6659 187.599C98.657 187.599 100.331 184.317 94.5213 182.473Z" fill="#39393B"/>
<path d="M87.3361 181.018C87.3361 181.018 88.8859 181.495 88.0357 182.827C87.1856 184.159 84.334 181.927 81.5178 184.133C81.5178 184.133 81.2522 180.471 87.3361 181.018Z" fill="#39393B"/>
<path d="M84.5248 192.208C84.3742 192.941 82.7271 193.232 80.8496 192.852C78.9722 192.473 77.5729 191.573 77.7235 190.832C77.874 190.099 79.5124 189.808 81.3987 190.188C83.2761 190.567 84.6753 191.467 84.5248 192.208Z" fill="#D96C63"/>
<path d="M102.883 192.694L97.862 191.838C97.8355 192.05 97.7823 192.262 97.7381 192.465C97.7292 192.5 97.7203 192.535 97.7026 192.562L102.759 193.418C102.963 193.453 103.158 193.312 103.193 193.109C103.22 192.915 103.096 192.721 102.883 192.694Z" fill="white"/>
<path d="M89.4708 188.408C89.4708 188.153 89.462 187.897 89.4265 187.65C89.2583 186.291 88.6561 185.038 87.7351 184.067C86.8849 183.176 85.7779 182.523 84.4938 182.24C84.4761 182.232 84.4495 182.232 84.4318 182.223C81.4917 181.623 78.5958 183.158 77.4003 185.77C77.294 186 77.2054 186.229 77.1257 186.467C77.0549 186.679 77.0018 186.9 76.9486 187.12C76.6121 188.761 76.9398 190.385 77.7634 191.709C78.0379 192.159 78.3833 192.573 78.7641 192.935C79.5965 193.738 80.6504 194.321 81.8636 194.568C83.9093 194.991 85.9196 194.374 87.3631 193.085C88.3373 192.22 89.0546 191.038 89.338 189.67C89.338 189.662 89.338 189.662 89.338 189.653C89.4265 189.238 89.4708 188.823 89.4708 188.408ZM82.0142 193.844C81.9788 193.835 81.9522 193.835 81.9256 193.826C80.3404 193.474 79.0563 192.468 78.3036 191.153C77.6571 190.014 77.4003 188.656 77.6837 187.279C77.7457 186.997 77.8254 186.723 77.9228 186.458C77.9316 186.441 77.9405 186.423 77.9405 186.405C78.7287 184.367 80.6504 182.982 82.8112 182.858C83.2894 182.832 83.7765 182.858 84.2724 182.964C85.3351 183.185 86.2561 183.688 86.9912 184.385C88.3373 185.664 89.0103 187.588 88.6118 189.529C87.983 192.521 85.0252 194.462 82.0142 193.844Z" fill="white"/>
<path d="M100.728 185.832C100.56 185.743 100.383 185.664 100.197 185.585C99.984 185.496 99.7627 185.426 99.5413 185.355C99.3819 185.311 99.2313 185.267 99.063 185.24C98.7619 185.179 98.4697 185.143 98.1774 185.126C97.8232 185.099 97.469 185.108 97.1236 185.152C96.1583 185.258 95.2462 185.576 94.4403 186.079C93.5547 186.626 92.8019 187.394 92.2883 188.32C92.1466 188.558 92.0315 188.805 91.9252 189.052C91.9163 189.07 91.9163 189.079 91.9075 189.097C91.7747 189.432 91.6684 189.785 91.5887 190.147C91.0839 192.582 92.0669 194.982 93.9178 196.412C94.52 196.879 95.2107 197.241 95.9723 197.462C96.0875 197.497 96.2026 197.532 96.3266 197.55C96.3886 197.568 96.4417 197.576 96.5037 197.594C97.1147 197.718 97.7258 197.753 98.3191 197.7C98.4166 197.691 98.514 197.682 98.6025 197.674C98.8594 197.638 99.1162 197.594 99.373 197.524C99.8424 197.4 100.303 197.224 100.728 197.003C102.349 196.156 103.588 194.62 103.987 192.697C104.563 189.882 103.163 187.111 100.728 185.832ZM103.252 192.538C103.225 192.661 103.199 192.776 103.163 192.891C103.119 193.059 103.066 193.217 103.004 193.385C102.561 194.559 101.746 195.512 100.719 196.138C100.347 196.368 99.9398 196.553 99.5147 196.694C99.249 196.782 98.9833 196.844 98.6999 196.888C98.6202 196.906 98.5405 196.915 98.4608 196.924C97.8764 196.994 97.2653 196.976 96.6542 196.853C96.6011 196.844 96.5391 196.826 96.486 196.818C96.4506 196.809 96.4151 196.8 96.3886 196.791C95.4941 196.562 94.6971 196.121 94.0506 195.529C93.9532 195.441 93.8646 195.353 93.7761 195.265C92.5451 193.994 91.9429 192.15 92.3237 190.288C92.4123 189.873 92.5451 189.467 92.7134 189.097C93.2713 187.879 94.2454 186.935 95.4233 186.379C96.1495 186.035 96.9553 185.849 97.7878 185.849C97.9206 185.849 98.0535 185.858 98.1952 185.867C98.4343 185.885 98.6734 185.92 98.9125 185.964C99.0896 185.999 99.2579 186.043 99.4261 186.096C99.6564 186.167 99.8778 186.255 100.099 186.352C100.267 186.432 100.436 186.52 100.604 186.608C102.605 187.791 103.748 190.147 103.252 192.538Z" fill="white"/>
<path d="M69.4007 186.912C69.3564 186.903 69.3121 186.886 69.2767 186.859C69.0996 186.745 69.0553 186.515 69.1616 186.347C71.6766 182.43 77.7252 185.95 77.7783 185.986C77.9554 186.092 78.0174 186.321 77.9112 186.497C77.8049 186.674 77.5746 186.736 77.3975 186.63C77.3444 186.595 71.9157 183.444 69.7903 186.753C69.7018 186.886 69.5424 186.939 69.4007 186.912Z" fill="white"/>
<path d="M92.1921 189.269C92.0947 189.252 92.015 189.19 91.953 189.11C91.1471 187.875 89.4291 188.431 89.4113 188.431C89.2165 188.493 89.004 188.387 88.942 188.193C88.88 187.999 88.9863 187.787 89.1811 187.725C89.9693 187.46 91.6962 187.328 92.5906 188.704C92.7057 188.881 92.6526 189.11 92.4755 189.216C92.3869 189.269 92.2806 189.287 92.1921 189.269Z" fill="white"/>
<g opacity="0.8">
<g opacity="0.8">
<g opacity="0.8">
<g opacity="0.8">
<g opacity="0.8">
<g opacity="0.8">
<g opacity="0.8">
<path opacity="0.8" d="M97.5184 193.444C97.3236 194.379 97.1376 195.262 96.9516 196.091C95.2425 195.676 94.0115 194.838 94.1532 194.141C94.2949 193.453 95.7738 193.162 97.5184 193.444Z" fill="#D96C63"/>
</g>
</g>
</g>
</g>
</g>
</g>
</g>
<path d="M85.841 188.5C85.6374 189.515 85.0086 190.238 84.4418 190.124C83.875 190.009 83.5828 189.1 83.7865 188.085C83.9902 187.071 84.6189 186.347 85.1857 186.462C85.7525 186.576 86.0536 187.494 85.841 188.5Z" fill="#39393B"/>
<path d="M95.8889 190.531C95.6852 191.546 95.0564 192.269 94.4897 192.154C93.9229 192.04 93.6307 191.131 93.8343 190.116C94.038 189.101 94.6668 188.378 95.2336 188.492C95.8003 188.607 96.1014 189.516 95.8889 190.531Z" fill="#39393B"/>
<path d="M90.7061 193.248C91.1932 193.345 91.5386 193.327 91.5651 193.327C91.6802 193.318 91.7954 193.265 91.8751 193.177C91.9548 193.089 91.9813 192.965 91.9725 192.851L91.326 188.13C91.2906 187.9 91.078 187.733 90.8478 187.768C90.6175 187.803 90.4493 188.015 90.4847 188.244L91.0603 192.453C90.6353 192.392 89.9976 192.215 89.422 191.739C89.2449 191.589 88.9703 191.615 88.8198 191.792C88.6692 191.968 88.6958 192.242 88.8729 192.392C89.5017 192.904 90.1836 193.142 90.7061 193.248Z" fill="#39393B"/>
<path d="M72.019 196.593C71.9482 196.699 69.9822 199.514 67.8833 200.026C67.8745 200.017 67.8745 200.017 67.8745 200.017C67.8568 199.285 67.8656 198.552 67.8745 197.837C67.9453 197.837 69.9556 197.89 72.019 196.593Z" fill="#39393B"/>
<path d="M71.5949 189.188C71.5949 189.188 68.6371 182.941 64.8025 186.603C61.641 189.629 64.404 199.724 69.8946 197.562L71.5949 189.188Z" fill="#EA9B7A"/>
<path d="M64.3278 194.579C62.6098 195.144 61.0954 196.662 60.7058 198.541C60.139 201.348 61.9633 204.083 64.7706 204.657C67.5868 205.221 70.3321 203.404 70.9077 200.606C71.3328 198.506 70.4206 196.441 68.7469 195.303C68.189 194.915 67.5425 194.641 66.834 194.5C66.8163 194.5 66.7986 194.491 66.7809 194.491C66.6835 194.844 66.7278 195.127 66.9226 195.347C67.4894 195.497 68.003 195.753 68.4546 196.088C69.7565 197.077 70.4561 198.744 70.1107 200.447C69.6325 202.812 67.3034 204.348 64.93 203.871C62.5567 203.395 61.0157 201.074 61.4939 198.709C61.8393 196.988 63.1234 195.771 64.7263 195.382L64.3278 194.579Z" fill="#FAAF3A"/>
<path d="M69.664 195.824C69.6817 195.824 69.6906 195.833 69.7083 195.833C69.9385 195.851 70.1511 195.683 70.1688 195.445C70.6027 190.724 67.0249 188.332 66.8744 188.235C66.6796 188.103 66.4139 188.165 66.2811 188.359C66.1482 188.553 66.2102 188.818 66.405 188.95C66.5379 189.038 69.7083 191.174 69.3186 195.374C69.3009 195.586 69.4515 195.78 69.664 195.824Z" fill="#39393B"/>
<path d="M66.2834 192.517C66.372 192.534 66.4782 192.525 66.5668 192.473C66.9919 192.252 68.2405 191.758 68.9224 192.084C69.135 192.19 69.3918 192.102 69.4892 191.89C69.5955 191.678 69.5069 191.422 69.2944 191.325C68.1077 190.752 66.372 191.625 66.1771 191.731C65.9646 191.837 65.8849 192.093 66 192.305C66.0531 192.411 66.1594 192.49 66.2834 192.517Z" fill="#39393B"/>
<path d="M75.3982 178.591C75.3982 178.591 71.4219 189.347 71.2094 191.518C70.9171 194.474 66.994 184.344 70.9348 175.696L75.3982 178.591Z" fill="#39393B"/>
<path d="M141.829 406.65H125.454C125.454 406.65 121.664 388.543 120.397 378.395C119.122 368.239 118.467 344.175 118.467 344.175C118.467 344.175 105.422 348.402 78.1107 346.805C17.5985 343.284 40.5441 298.987 40.5441 298.987C42.5898 301.802 57.9281 305.676 66.4829 307.026C92.7582 309.541 112.728 313.988 126.402 319.865C129.696 321.277 132.618 322.777 135.187 324.357C138.481 326.377 140.544 332.528 141.793 340.602C145.521 364.868 141.829 406.65 141.829 406.65Z" fill="#39393B"/>
<path d="M127.488 397.924C127.214 397.924 126.974 397.73 126.913 397.456C124.548 385.809 123.76 371.311 123.122 359.663C122.591 350.001 122.095 340.877 120.846 339.782C119.837 338.891 115.648 339.588 110.352 340.462C99.8047 342.209 83.8642 344.839 66.2941 340.771C56.721 338.547 49.6806 333.914 45.3766 326.996C37.9465 315.066 41.3383 300.268 41.3738 300.118C41.4446 299.8 41.7634 299.606 42.0822 299.686C42.401 299.756 42.5959 300.074 42.5162 300.392C42.4807 300.533 39.2129 314.872 46.3862 326.387C50.5219 333.032 57.3143 337.488 66.5687 339.632C83.9173 343.656 99.7162 341.044 110.175 339.315C116.436 338.282 120.217 337.656 121.643 338.909C123.184 340.268 123.618 346.939 124.309 359.601C124.947 371.214 125.735 385.659 128.081 397.227C128.143 397.545 127.94 397.854 127.621 397.915C127.568 397.915 127.524 397.924 127.488 397.924Z" fill="#585859"/>
<path d="M142.147 398.231H142.138L123.93 397.843C123.603 397.834 123.346 397.569 123.355 397.243C123.364 396.916 123.629 396.66 123.957 396.669L142.165 397.057C142.492 397.066 142.749 397.331 142.74 397.657C142.722 397.975 142.457 398.231 142.147 398.231Z" fill="#585859"/>
<path d="M141.381 427.549H129.833L127.601 414.04L126.388 406.654H140.743L140.964 414.04L141.381 427.549Z" fill="#EA9B7A"/>
<path d="M141.376 427.547H129.828L128.163 417.488L127.597 414.038H140.96L141.075 417.62L141.376 427.547Z" fill="#FAAF3A"/>
<path d="M141.075 417.62L128.163 417.488L127.597 414.038H140.96L141.075 417.62Z" fill="#C77E2E"/>
<path d="M169.895 445.733H126.191C125.864 445.142 125.686 444.313 125.616 443.316C125.341 439.627 126.519 433.75 127.094 430.044C127.165 429.612 127.227 429.206 127.272 428.844C127.351 428.226 127.404 427.706 127.404 427.326C127.404 424.3 130.088 424.82 130.088 424.82C134.507 429.144 139.519 422.667 142.442 424.785C142.442 424.785 142.557 424.873 142.831 425.076C143.079 425.27 143.451 425.57 143.965 426.003C144.709 426.62 145.754 427.521 147.171 428.791C150.642 431.906 156.54 433.953 161.562 436.045C162.199 436.309 162.792 436.574 163.35 436.848C163.767 437.051 164.165 437.253 164.537 437.448C168.646 439.654 169.948 441.771 170.249 443.307C170.541 444.789 169.895 445.733 169.895 445.733Z" fill="#0875F7"/>
<path d="M164.55 437.457C163.426 438.349 160.919 440.14 158.909 440.14C158.821 440.14 158.732 440.14 158.644 440.131C157.227 440.016 152.019 437.466 147.777 435.145C145.351 433.813 143.128 432.507 141.534 431.457C138.922 429.736 138.461 429.083 138.364 428.624C137.983 426.904 140.834 425.712 142.836 425.086C143.084 425.28 143.456 425.58 143.969 426.012C141.49 426.683 139.444 427.742 139.541 428.342C139.789 428.854 142.375 430.813 148.557 434.192C153.277 436.769 157.749 438.843 158.741 438.931C160.087 439.037 162.062 437.819 163.355 436.857C163.78 437.051 164.178 437.254 164.55 437.457Z" fill="#084FC7"/>
<path d="M169.891 445.735H126.187C125.859 445.143 125.682 444.314 125.611 443.317H170.254C170.537 444.791 169.891 445.735 169.891 445.735Z" fill="#084FC7"/>
<path d="M130.661 445.735H129.359C130.652 444.261 131.865 441.994 131.706 438.764C131.493 434.458 128.907 431.564 127.101 430.046C127.171 429.613 127.233 429.207 127.278 428.846C129.217 430.319 132.485 433.558 132.742 438.711C132.901 441.799 131.883 444.103 130.661 445.735Z" fill="#084FC7"/>
<path d="M146.44 431.366C146.121 431.366 145.82 431.145 145.741 430.819C145.643 430.431 145.882 430.042 146.263 429.945L148.991 429.266C149.38 429.169 149.77 429.407 149.867 429.786C149.965 430.175 149.726 430.563 149.345 430.66L146.617 431.34C146.555 431.357 146.502 431.366 146.44 431.366Z" fill="white"/>
<path d="M143.728 429.099C143.401 429.099 143.108 428.878 143.029 428.552C142.931 428.164 143.17 427.775 143.551 427.678L146.279 426.999C146.668 426.902 147.058 427.14 147.155 427.519C147.253 427.908 147.014 428.296 146.633 428.393L143.905 429.072C143.843 429.09 143.781 429.099 143.728 429.099Z" fill="white"/>
<path d="M149.167 432.946C148.848 432.946 148.547 432.725 148.467 432.398C148.37 432.01 148.609 431.622 148.99 431.525L151.717 430.845C152.107 430.748 152.496 430.987 152.594 431.366C152.691 431.754 152.452 432.143 152.071 432.24L149.344 432.919C149.291 432.937 149.229 432.946 149.167 432.946Z" fill="white"/>
<path d="M151.893 434.464C151.574 434.464 151.273 434.243 151.194 433.917C151.096 433.528 151.335 433.14 151.716 433.052L154.444 432.372C154.833 432.275 155.223 432.513 155.32 432.893C155.418 433.281 155.179 433.669 154.798 433.767L152.07 434.446C152.008 434.464 151.946 434.464 151.893 434.464Z" fill="white"/>
<path d="M154.869 435.877C154.551 435.877 154.249 435.656 154.17 435.33C154.072 434.941 154.311 434.553 154.692 434.465L157.42 433.785C157.809 433.688 158.199 433.927 158.297 434.306C158.394 434.694 158.155 435.083 157.774 435.18L155.046 435.859C154.984 435.868 154.922 435.877 154.869 435.877Z" fill="white"/>
<path d="M158.099 437.067C157.771 437.067 157.479 436.847 157.399 436.52C157.302 436.132 157.541 435.744 157.922 435.646L160.649 434.967C161.039 434.87 161.429 435.108 161.526 435.488C161.623 435.876 161.384 436.264 161.004 436.361L158.276 437.041C158.214 437.067 158.161 437.067 158.099 437.067Z" fill="white"/>
<path d="M202.142 298.326V301.944C202.142 304.026 200.884 305.712 199.326 305.712H3.19507C1.63644 305.712 0.378906 304.026 0.378906 301.944V298.326C0.378906 296.244 1.63644 294.558 3.19507 294.558H199.317C200.884 294.558 202.142 296.244 202.142 298.326Z" fill="#F47E20"/>
<path d="M202.142 299.475H0.378906V301.134H202.142V299.475Z" fill="#FBAA1C"/>
<path d="M196.25 315.003H11.8882C11.0646 315.003 10.3916 314.332 10.3916 313.512V305.658H197.737V313.512C197.737 314.332 197.073 315.003 196.25 315.003Z" fill="#FBAA1C"/>
<path d="M187.965 361.102H23.0952V367.508H187.965V361.102Z" fill="#FBAA1C"/>
<path d="M11.2115 446.872L43.1281 315.005H31.9165L0 446.872H11.2115Z" fill="#F47E20"/>
<path d="M199.637 446.872L167.72 315.005H178.932L210.848 446.872H199.637Z" fill="#F47E20"/>
<path d="M18.2855 264.25L14.8276 264.778L18.8245 290.78L22.2823 290.252L18.2855 264.25Z" fill="#FAAF3A"/>
<path d="M18.2903 264.24L14.8276 264.77L15.5892 262.14L15.9878 260.772L16.7759 261.955L18.2903 264.24Z" fill="#EA9B7A"/>
<path d="M21.9896 288.357L18.5317 288.884L18.8227 290.777L22.2805 290.249L21.9896 288.357Z" fill="#39393B"/>
<path d="M22.2825 291.78L19.2803 292.239C19.1563 292.257 19.0324 292.168 19.0147 292.045L18.8198 290.765L22.2825 290.236L22.4773 291.515C22.5039 291.648 22.4153 291.762 22.2825 291.78Z" fill="#DF615C"/>
<path d="M16.778 261.955L15.5913 262.14L15.9898 260.772L16.778 261.955Z" fill="#39393B"/>
<path d="M21.785 287.003L18.3271 287.531L18.535 288.883L21.9928 288.355L21.785 287.003Z" fill="#C77E2E"/>
<path d="M15.8901 265.925L18.848 285.179C18.8745 285.32 19.0074 285.426 19.1491 285.4C19.2908 285.373 19.397 285.241 19.3705 285.1L16.4126 265.846C16.386 265.705 16.2532 265.599 16.1115 265.625C15.961 265.643 15.8635 265.775 15.8901 265.925Z" fill="#C77E2E"/>
<path d="M17.2384 265.713L20.1963 284.967C20.2228 285.108 20.3557 285.214 20.4974 285.188C20.6479 285.161 20.7453 285.029 20.7188 284.888L17.7609 265.633C17.7343 265.492 17.6015 265.386 17.4598 265.413C17.3181 265.43 17.2207 265.572 17.2384 265.713Z" fill="#C77E2E"/>
<path d="M24.5401 264.367L21.042 264.379L21.1288 290.683L24.6269 290.672L24.5401 264.367Z" fill="#21B573"/>
<path d="M24.5474 264.364L21.0405 264.372L22.1918 261.884L22.7851 260.596L23.3785 261.875L24.5474 264.364Z" fill="#EA9B7A"/>
<path d="M24.6255 288.758L21.1274 288.77L21.1338 290.684L24.6318 290.673L24.6255 288.758Z" fill="#39393B"/>
<path d="M24.4075 292.186L21.3699 292.195C21.2371 292.195 21.1396 292.089 21.1396 291.965V290.677L24.6377 290.668V291.956C24.6377 292.089 24.5314 292.186 24.4075 292.186Z" fill="#DF615C"/>
<path d="M23.382 261.875L22.1953 261.884L22.7887 260.596L23.382 261.875Z" fill="#39393B"/>
<path d="M24.6201 287.39L21.1221 287.401L21.1266 288.769L24.6246 288.758L24.6201 287.39Z" fill="#217C58"/>
<path d="M21.9214 265.669L21.9834 285.143C21.9834 285.293 22.1074 285.408 22.2491 285.408C22.3996 285.408 22.5147 285.284 22.5147 285.143L22.4527 265.669C22.4527 265.519 22.3288 265.404 22.1871 265.404C22.0365 265.404 21.9214 265.519 21.9214 265.669Z" fill="#217C58"/>
<path d="M23.2949 265.66L23.3569 285.135C23.3569 285.285 23.4809 285.4 23.6226 285.4C23.7731 285.4 23.8883 285.276 23.8883 285.135L23.8263 265.66C23.8263 265.51 23.7023 265.396 23.5606 265.396C23.41 265.396 23.2949 265.51 23.2949 265.66Z" fill="#217C58"/>
<path d="M27.1243 264.232L23.4126 290.276L26.876 290.766L30.5877 264.722L27.1243 264.232Z" fill="#0875F7"/>
<path d="M30.5911 264.735L27.1196 264.241L28.6163 261.938L29.3867 260.747L29.803 262.105L30.5911 264.735Z" fill="#EA9B7A"/>
<path d="M27.1534 288.889L23.6899 288.399L23.4197 290.295L26.8832 290.785L27.1534 288.889Z" fill="#39393B"/>
<path d="M26.4292 292.247L23.4271 291.824C23.3031 291.806 23.2145 291.691 23.2322 291.559L23.4182 290.279L26.8809 290.773L26.6949 292.053C26.6772 292.176 26.562 292.265 26.4292 292.247Z" fill="#DF615C"/>
<path d="M29.8053 262.105L28.6187 261.938L29.3891 260.747L29.8053 262.105Z" fill="#39393B"/>
<path d="M23.8806 287.03L23.6875 288.384L27.1509 288.874L27.344 287.52L23.8806 287.03Z" fill="#084FC7"/>
<path d="M27.8045 265.652L25.0592 284.933C25.0415 285.083 25.1389 285.215 25.2895 285.233C25.44 285.251 25.5728 285.154 25.5906 285.004L28.3359 265.723C28.3536 265.573 28.2562 265.441 28.1056 265.423C27.9639 265.405 27.8222 265.502 27.8045 265.652Z" fill="#084FC7"/>
<path d="M29.1532 265.835L26.4078 285.116C26.3901 285.266 26.4875 285.398 26.6381 285.416C26.7886 285.434 26.9215 285.337 26.9392 285.187L29.6845 265.906C29.7022 265.756 29.6048 265.624 29.4542 265.606C29.3126 265.588 29.1709 265.694 29.1532 265.835Z" fill="#084FC7"/>
<path d="M31.7221 274.765L31.545 276.177L31.3767 277.456L31.1199 279.407L30.9605 280.668L30.7037 282.636L30.5442 283.88L30.2874 285.857L30.128 287.092L29.8712 289.087L29.7118 290.304L29.4461 292.316L29.2956 293.516L29.1627 294.558H15.4007L15.2679 293.516L15.1085 292.316L14.8517 290.304L14.6923 289.087L14.4354 287.092L14.276 285.857L14.0192 283.88L13.8509 282.636L13.603 280.668L13.4347 279.407L13.1868 277.456L13.0185 276.177L12.8325 274.765H31.7221Z" fill="#DF615C"/>
<path d="M31.546 276.177L31.3777 277.457H13.1878L13.0195 276.177H31.546Z" fill="#B11722"/>
<path d="M31.1222 279.406L30.9628 280.668H13.6053L13.437 279.406H31.1222Z" fill="#B11722"/>
<path d="M30.7043 282.637L30.5449 283.881H14.0198L13.8516 282.637H30.7043Z" fill="#B11722"/>
<path d="M30.2902 285.858L30.1308 287.094H14.4382L14.2788 285.858H30.2902Z" fill="#B11722"/>
<path d="M29.8699 289.087L29.7105 290.305H14.8503L14.6909 289.087H29.8699Z" fill="#B11722"/>
<path d="M29.446 292.318L29.2955 293.518H15.2678L15.1084 292.318H29.446Z" fill="#B11722"/>
<path d="M200.995 224.627L189.261 274.078L188.951 275.375L188.163 278.701C187.818 280.148 186.534 281.163 185.046 281.163H105.999C103.926 281.163 102.403 279.24 102.881 277.237L115.713 223.163C116.059 221.724 117.343 220.71 118.831 220.71H197.878C199.942 220.701 201.474 222.624 200.995 224.627Z" fill="#39393B"/>
<path d="M189.264 274.077L188.954 275.374H106.877V274.077H189.264Z" fill="#585859"/>
<path d="M137.86 232.938C137.205 236.441 133.822 239.283 130.306 239.283C126.79 239.283 124.47 236.441 125.125 232.938C125.781 229.435 129.164 226.594 132.679 226.594C136.195 226.594 138.515 229.435 137.86 232.938Z" fill="#FAAF3A"/>
<path d="M130.668 231.722C130.535 232.419 130.18 232.993 129.879 232.993C129.569 232.993 129.428 232.428 129.561 231.722C129.693 231.025 130.048 230.451 130.349 230.451C130.65 230.451 130.792 231.025 130.668 231.722Z" fill="#39393B"/>
<path d="M133.984 231.722C133.851 232.419 133.497 232.993 133.196 232.993C132.886 232.993 132.744 232.428 132.877 231.722C133.01 231.025 133.364 230.451 133.665 230.451C133.975 230.451 134.117 231.025 133.984 231.722Z" fill="#39393B"/>
<path d="M130.957 236.026C128.22 236.026 128.105 233.299 128.105 233.273C128.096 233.123 128.22 232.973 128.379 232.946C128.539 232.911 128.663 233.008 128.672 233.158C128.672 233.255 128.778 235.479 131.072 235.479C133.356 235.479 134.295 233.255 134.339 233.158C134.401 233.008 134.57 232.92 134.711 232.946C134.853 232.982 134.924 233.123 134.862 233.273C134.827 233.299 133.693 236.026 130.957 236.026Z" fill="#39393B"/>
<path d="M174.391 262.562C174.462 265.845 180.041 269.957 180.041 269.957C180.041 269.957 186.524 265.845 187.312 262.562C188.162 259.006 184.088 257.912 181.068 260.594C178.633 257.912 174.32 259.006 174.391 262.562Z" fill="#DF615C"/>
<path d="M162.59 253.05C162.209 256.456 159.136 259.209 155.727 259.209C152.317 259.209 149.846 256.447 150.227 253.05C150.608 249.644 153.681 246.891 157.09 246.891C160.5 246.882 162.962 249.644 162.59 253.05Z" fill="#585859"/>
<path d="M121.958 220.698L108.294 281.161H105.991C103.919 281.161 102.396 279.237 102.874 277.234L115.706 223.16C116.052 221.722 117.336 220.698 118.823 220.698H121.958Z" fill="#585859"/>
<path d="M144.86 281.163L142.46 294.602H150.378L152.778 281.163H144.86Z" fill="white"/>
<path d="M130.601 292.291L132.222 290.023C132.798 289.211 133.736 288.735 134.737 288.735H156.452C157.603 288.735 158.657 289.37 159.188 290.385L160.277 292.467C160.791 293.438 160.083 294.612 158.976 294.612H131.797C130.61 294.603 129.911 293.262 130.601 292.291Z" fill="white"/>
<path d="M85.356 294.594H150.588L151.297 292.141C151.74 290.596 150.579 289.061 148.968 289.061H88.7743C87.6939 289.061 86.7463 289.776 86.4452 290.808L85.356 294.594Z" fill="white"/>
<path d="M561.022 412.837H498.995C497.817 412.837 496.861 411.884 496.861 410.71V409.731C496.861 408.557 497.817 407.604 498.995 407.604H561.022C562.199 407.604 563.156 408.557 563.156 409.731V410.71C563.156 411.884 562.199 412.837 561.022 412.837Z" fill="#39393B"/>
<path d="M499.782 349.639H560.383C561.393 349.639 562.207 350.451 562.207 351.457V358.878C562.207 359.884 561.393 360.696 560.383 360.696H499.782C498.773 360.696 497.958 359.884 497.958 358.878V351.457C497.958 350.451 498.773 349.639 499.782 349.639Z" fill="#585859"/>
<path d="M514.08 302.605C514.08 302.605 488.531 297.576 481.402 279.813C474.273 262.05 500.345 248.726 514.08 258.264C528.781 268.474 514.08 302.605 514.08 302.605Z" fill="#21B573"/>
<path d="M529.278 349.277C529.057 349.277 528.853 349.109 528.818 348.88C526.373 332.379 516.499 308.642 508.662 291.638C500.151 273.196 492.128 258.477 492.048 258.327C491.924 258.107 492.013 257.824 492.234 257.701C492.455 257.577 492.739 257.665 492.863 257.886C492.943 258.036 500.984 272.781 509.512 291.25C517.385 308.316 527.286 332.141 529.747 348.748C529.783 349.003 529.615 349.233 529.358 349.268C529.322 349.277 529.305 349.277 529.278 349.277Z" fill="#39393B"/>
<path d="M513.127 300.894C512.959 300.894 512.799 300.806 512.72 300.647C501.606 280.025 483.557 265.06 483.38 264.91C483.185 264.751 483.159 264.46 483.318 264.265C483.478 264.071 483.77 264.045 483.965 264.204C484.151 264.354 502.332 279.425 513.534 300.215C513.658 300.435 513.57 300.718 513.348 300.841C513.278 300.876 513.198 300.894 513.127 300.894Z" fill="#39393B"/>
<path d="M513.633 302.368C513.5 302.368 513.376 302.315 513.279 302.209C505.175 292.706 496.869 286.794 491.334 283.511C485.329 279.955 481.194 278.623 481.158 278.614C480.919 278.535 480.778 278.279 480.857 278.032C480.937 277.784 481.194 277.652 481.442 277.732C481.61 277.784 485.701 279.09 491.785 282.699C497.391 286.017 505.795 292 513.987 301.609C514.155 301.804 514.129 302.095 513.934 302.262C513.845 302.333 513.739 302.368 513.633 302.368Z" fill="#39393B"/>
<path d="M511.381 296.96C511.186 296.96 511.009 296.836 510.947 296.651C504.713 278.429 507.006 256.29 507.033 256.069C507.059 255.813 507.29 255.637 507.538 255.663C507.794 255.69 507.971 255.919 507.945 256.166C507.918 256.387 505.651 278.332 511.815 296.351C511.895 296.589 511.771 296.854 511.523 296.933C511.478 296.951 511.434 296.96 511.381 296.96Z" fill="#39393B"/>
<path d="M512.951 300.568C512.729 300.568 512.534 300.409 512.499 300.18C510.595 288.646 512.056 279.24 513.624 273.381C515.324 267.019 517.449 263.436 517.538 263.286C517.671 263.065 517.954 262.995 518.175 263.127C518.397 263.26 518.468 263.542 518.335 263.763C518.317 263.798 516.174 267.416 514.509 273.663C512.977 279.425 511.542 288.691 513.411 300.038C513.455 300.285 513.278 300.524 513.03 300.568C513.004 300.568 512.977 300.568 512.951 300.568Z" fill="#39393B"/>
<path d="M541.039 307.25C541.039 307.25 566.845 303.729 575.019 286.425C583.193 269.112 557.953 254.279 543.678 262.988C528.393 272.306 541.039 307.25 541.039 307.25Z" fill="#21B573"/>
<path d="M531.255 347.77C531.246 347.77 531.255 347.77 531.255 347.77C530.998 347.77 530.786 347.558 530.795 347.302C530.892 338.804 532.752 329.124 536.321 318.535C539.172 310.073 543.104 301.011 548.028 291.604C556.397 275.589 564.828 263.95 564.916 263.835C565.067 263.632 565.359 263.579 565.563 263.729C565.766 263.879 565.82 264.17 565.669 264.373C565.589 264.488 557.194 276.083 548.852 292.037C541.165 306.746 531.955 328.268 531.733 347.311C531.716 347.567 531.503 347.77 531.255 347.77Z" fill="#39393B"/>
<path d="M542.13 305.59C542.05 305.59 541.962 305.573 541.891 305.52C541.669 305.387 541.607 305.105 541.74 304.885C554.156 284.792 573.205 270.815 573.4 270.674C573.604 270.524 573.896 270.568 574.047 270.771C574.197 270.974 574.153 271.265 573.949 271.415C573.763 271.556 554.856 285.427 542.537 305.361C542.431 305.52 542.28 305.59 542.13 305.59Z" fill="#39393B"/>
<path d="M541.538 307.037C541.423 307.037 541.308 306.992 541.219 306.913C541.033 306.737 541.025 306.445 541.202 306.26C549.96 297.145 558.701 291.674 564.493 288.691C570.78 285.453 574.934 284.385 575.111 284.341C575.359 284.279 575.607 284.429 575.669 284.676C575.731 284.923 575.58 285.171 575.332 285.232C575.288 285.241 571.081 286.326 564.882 289.521C559.161 292.468 550.527 297.886 541.866 306.895C541.777 306.992 541.662 307.037 541.538 307.037Z" fill="#39393B"/>
<path d="M544.107 301.77C544.045 301.77 543.992 301.761 543.93 301.735C543.691 301.638 543.584 301.373 543.673 301.135C550.899 283.504 549.934 261.471 549.925 261.25C549.916 260.994 550.111 260.782 550.368 260.765C550.616 260.747 550.837 260.95 550.855 261.206C550.864 261.427 551.838 283.663 544.541 301.488C544.461 301.664 544.284 301.77 544.107 301.77Z" fill="#39393B"/>
<path d="M542.324 305.281C542.288 305.281 542.253 305.281 542.217 305.273C541.969 305.22 541.81 304.973 541.872 304.725C544.423 293.501 543.537 284.174 542.35 278.333C541.057 271.997 539.144 268.264 539.127 268.22C539.012 267.991 539.1 267.717 539.322 267.603C539.552 267.488 539.826 267.576 539.941 267.797C540.021 267.956 541.925 271.653 543.245 278.112C544.458 284.059 545.361 293.537 542.775 304.928C542.722 305.131 542.536 305.281 542.324 305.281Z" fill="#39393B"/>
<path d="M531.107 273.754C531.107 273.754 509.242 259.653 509.215 240.522C509.189 221.392 538.36 218.639 547.579 232.563C557.453 247.467 531.107 273.754 531.107 273.754Z" fill="#21B573"/>
<path d="M528.051 322.745C528.016 322.745 527.981 322.745 527.945 322.736C527.697 322.674 527.547 322.427 527.6 322.18C531.461 305.952 531.115 280.257 530.15 261.567C529.105 241.298 527.113 224.656 527.095 224.497C527.068 224.241 527.245 224.012 527.502 223.986C527.75 223.959 527.989 224.136 528.016 224.391C528.034 224.559 530.026 241.228 531.08 261.523C532.054 280.274 532.391 306.058 528.512 322.392C528.45 322.603 528.264 322.745 528.051 322.745Z" fill="#39393B"/>
<path d="M531.025 271.838C530.795 271.838 530.591 271.661 530.564 271.432C527.908 248.172 516.705 227.612 516.59 227.409C516.466 227.188 516.546 226.906 516.776 226.782C516.997 226.659 517.281 226.738 517.405 226.967C517.52 227.17 528.811 247.889 531.485 271.335C531.512 271.591 531.335 271.82 531.078 271.847C531.06 271.838 531.043 271.838 531.025 271.838Z" fill="#39393B"/>
<path d="M530.947 273.39C530.752 273.39 530.575 273.267 530.513 273.073C526.519 261.248 521.001 252.698 517.078 247.606C512.827 242.082 509.48 239.329 509.444 239.303C509.25 239.144 509.214 238.853 509.382 238.659C509.542 238.465 509.834 238.429 510.029 238.597C510.171 238.712 513.474 241.429 517.787 247.024C521.763 252.177 527.342 260.825 531.38 272.781C531.46 273.02 531.336 273.284 531.088 273.364C531.044 273.39 530.991 273.39 530.947 273.39Z" fill="#39393B"/>
<path d="M530.867 267.541C530.858 267.541 530.849 267.541 530.84 267.541C530.583 267.532 530.389 267.311 530.406 267.056C531.389 247.837 541.751 228.115 541.848 227.912C541.972 227.691 542.247 227.603 542.477 227.718C542.707 227.833 542.787 228.115 542.672 228.344C542.566 228.538 532.302 248.084 531.336 267.1C531.319 267.356 531.115 267.541 530.867 267.541Z" fill="#39393B"/>
<path d="M530.98 271.467C530.945 271.467 530.918 271.467 530.883 271.459C530.635 271.406 530.476 271.159 530.529 270.912C533.044 259.493 537.915 251.234 541.563 246.31C545.522 240.963 548.834 238.36 548.976 238.254C549.179 238.095 549.472 238.13 549.622 238.333C549.781 238.536 549.746 238.827 549.542 238.977C549.507 239.004 546.168 241.633 542.281 246.884C538.694 251.728 533.903 259.864 531.432 271.106C531.388 271.326 531.193 271.467 530.98 271.467Z" fill="#39393B"/>
<path d="M557.822 320.264L557.06 322.276L556.582 323.556L555.201 327.209L554.714 328.488L553.297 332.247L552.818 333.518L546.726 349.631H513.445L507.352 333.518L506.874 332.247L505.457 328.488L504.97 327.209L503.589 323.556L503.11 322.276L502.349 320.264C501.826 318.879 502.854 317.405 504.333 317.405H555.847C557.317 317.405 558.336 318.879 557.822 320.264Z" fill="#0875F7"/>
<path d="M557.053 322.277L556.575 323.556H503.581L503.103 322.277H557.053Z" fill="#084FC7"/>
<path d="M555.194 327.217L554.707 328.487H505.45L504.963 327.217H555.194Z" fill="#084FC7"/>
<path d="M553.291 332.247L552.812 333.517H507.355L506.868 332.247H553.291Z" fill="#084FC7"/>
<path d="M521.17 360.687L519.319 366.617L493.628 449.122H488.607L504.902 368.302L506.434 360.687H521.17Z" fill="#39393B"/>
<path d="M571.702 449.122H566.68L540.228 364.181L539.147 360.687H553.866L554.238 362.54H554.247L571.702 449.122Z" fill="#39393B"/>
<path d="M561.022 401.463H498.995C497.817 401.463 496.861 400.51 496.861 399.336V398.357C496.861 397.183 497.817 396.23 498.995 396.23H561.013C562.191 396.23 563.147 397.183 563.147 398.357V399.336C563.156 400.51 562.199 401.463 561.022 401.463Z" fill="#585859"/>
<path d="M156.579 148.67C169.843 148.67 180.596 138.091 180.596 125.04C180.596 111.989 169.843 101.409 156.579 101.409C143.315 101.409 132.562 111.989 132.562 125.04C132.562 138.091 143.315 148.67 156.579 148.67Z" fill="#CED3E6"/>
<path d="M156.58 145.599C169.844 145.599 180.597 135.019 180.597 121.968C180.597 108.917 169.844 98.3374 156.58 98.3374C143.315 98.3374 132.562 108.917 132.562 121.968C132.562 135.019 143.315 145.599 156.58 145.599Z" fill="#0875F7"/>
<path d="M156.581 141.179C167.361 141.179 176.1 132.579 176.1 121.969C176.1 111.36 167.361 102.759 156.581 102.759C145.802 102.759 137.063 111.36 137.063 121.969C137.063 132.579 145.802 141.179 156.581 141.179Z" fill="white"/>
<path d="M176.11 121.969C176.11 122.481 176.092 122.984 176.048 123.487C175.259 113.604 166.829 105.794 156.582 105.794C146.336 105.794 137.914 113.604 137.117 123.487C137.082 122.984 137.055 122.481 137.055 121.969C137.055 111.371 145.814 102.759 156.574 102.759C167.351 102.759 176.11 111.371 176.11 121.969Z" fill="#CED3E6"/>
<path d="M156.581 123.964C156.43 123.964 156.28 123.893 156.191 123.77L146.618 111.081C146.458 110.869 146.503 110.569 146.715 110.41C146.928 110.251 147.238 110.295 147.397 110.507L156.74 122.887L167.358 118.299C167.606 118.193 167.89 118.299 168.005 118.546C168.111 118.793 168.005 119.075 167.757 119.181L156.775 123.928C156.713 123.955 156.651 123.964 156.581 123.964Z" fill="#39393B"/>
</svg>
