<svg width="67" height="68" viewBox="0 0 67 68" fill="none" xmlns="http://www.w3.org/2000/svg">
<path fill-rule="evenodd" clip-rule="evenodd" d="M66.8327 33.9998C66.8327 52.4098 51.9093 67.3332 33.4993 67.3332C15.0893 67.3332 0.166016 52.4098 0.166016 33.9998C0.166016 15.5898 15.0893 0.666504 33.4993 0.666504C51.9093 0.666504 66.8327 15.5898 66.8327 33.9998ZM20.536 46.9632C20.2236 46.6506 20.048 46.2268 20.048 45.7848C20.048 45.3429 20.2236 44.919 20.536 44.6065L31.1427 33.9998L20.536 23.3932C20.2324 23.0788 20.0644 22.6578 20.0682 22.2208C20.072 21.7838 20.2473 21.3658 20.5563 21.0568C20.8653 20.7478 21.2833 20.5725 21.7203 20.5687C22.1573 20.5649 22.5783 20.7329 22.8927 21.0365L33.4993 31.6432L44.106 21.0365C44.4204 20.7329 44.8414 20.5649 45.2784 20.5687C45.7153 20.5725 46.1334 20.7478 46.4424 21.0568C46.7514 21.3658 46.9267 21.7838 46.9305 22.2208C46.9343 22.6578 46.7663 23.0788 46.4627 23.3932L35.856 33.9998L46.4627 44.6065C46.7663 44.9208 46.9343 45.3418 46.9305 45.7788C46.9267 46.2158 46.7514 46.6339 46.4424 46.9429C46.1334 47.2519 45.7153 47.4272 45.2784 47.431C44.8414 47.4348 44.4204 47.2668 44.106 46.9632L33.4993 36.3565L22.8927 46.9632C22.5801 47.2756 22.1563 47.4511 21.7143 47.4511C21.2724 47.4511 20.8486 47.2756 20.536 46.9632Z" fill="#9B2FAC"/>
</svg>
