<svg width="65" height="66" viewBox="0 0 65 66" fill="none" xmlns="http://www.w3.org/2000/svg">
<path fill-rule="evenodd" clip-rule="evenodd" d="M0 33C0 15.05 14.55 0.5 32.5 0.5C50.45 0.5 65 15.05 65 33C65 50.95 50.45 65.5 32.5 65.5C14.55 65.5 0 50.95 0 33ZM44.5333 26.9533C44.7333 26.6868 44.878 26.3831 44.959 26.0598C45.0399 25.7366 45.0554 25.4005 45.0045 25.0712C44.9537 24.7419 44.8375 24.4261 44.6628 24.1423C44.4882 23.8586 44.2586 23.6126 43.9875 23.4188C43.7164 23.2251 43.4094 23.0875 43.0844 23.0141C42.7593 22.9407 42.4229 22.933 42.0949 22.9915C41.7669 23.05 41.4539 23.1735 41.1743 23.3547C40.8946 23.5359 40.6541 23.7712 40.4667 24.0467L29.68 39.1467L24.2667 33.7333C23.7927 33.2917 23.1659 33.0513 22.5183 33.0627C21.8706 33.0742 21.2526 33.3366 20.7946 33.7946C20.3366 34.2526 20.0742 34.8706 20.0627 35.5183C20.0513 36.1659 20.2917 36.7927 20.7333 37.2667L28.2333 44.7667C28.49 45.0231 28.7993 45.2206 29.14 45.3455C29.4806 45.4704 29.8443 45.5196 30.2059 45.4898C30.5674 45.46 30.9182 45.3518 31.2338 45.1728C31.5493 44.9939 31.8222 44.7483 32.0333 44.4533L44.5333 26.9533Z" fill="#2FAC8E"/>
</svg>
