<svg width="53" height="37" viewBox="0 0 53 37" fill="none" xmlns="http://www.w3.org/2000/svg">
<path d="M11.5613 0C5.18607 0 6.10352e-05 5.16321 6.10352e-05 11.5105C6.10352e-05 17.6337 4.8265 22.6558 10.8908 23.0028C10.9958 24.1314 10.917 27.2037 7.96001 31.4775C7.73648 31.7999 7.77705 32.2347 8.05467 32.5111C9.2647 33.7158 10.0125 34.4745 10.5359 35.0052C11.2209 35.699 11.5336 36.0158 11.991 36.4292C12.1461 36.5694 12.3418 36.6399 12.5383 36.6399C12.7292 36.6399 12.9193 36.5734 13.0729 36.4411C18.2255 31.9772 23.9493 22.7541 23.1212 11.4519C22.6359 4.81633 17.7744 0 11.5613 0ZM12.5462 34.7208C12.3243 34.503 12.0713 34.2464 11.6982 33.8686C11.2448 33.4085 10.6227 32.778 9.67918 31.8355C13.2678 26.3301 12.59 22.4088 12.2933 21.8464C12.1524 21.5795 11.8637 21.3997 11.5613 21.3997C6.085 21.3997 1.62929 16.9636 1.62929 11.5105C1.62929 6.05819 6.085 1.62207 11.5613 1.62207C16.8962 1.62207 21.0743 5.80555 21.4967 11.5691C22.4274 24.2812 14.839 32.5348 12.5462 34.7208Z" fill="#B6BECB"/>
<path d="M52.0532 11.4519V11.4511C51.5663 4.81633 46.7041 0 40.4926 0C34.1172 0 28.9304 5.16321 28.9304 11.5105C28.9304 17.6337 33.7577 22.6558 39.8227 23.0028C39.9277 24.1306 39.8482 27.2013 36.8904 31.4775C36.6669 31.7999 36.7075 32.2347 36.9851 32.5111C38.1903 33.711 38.9365 34.4682 39.46 34.998C40.1481 35.6966 40.4624 36.015 40.9221 36.43C41.0773 36.5694 41.2737 36.6399 41.4695 36.6399C41.6604 36.6399 41.8506 36.5734 42.004 36.4403C47.1567 31.9764 52.8805 22.7533 52.0532 11.4519ZM41.4774 34.7208C41.2539 34.5014 40.9986 34.2433 40.6222 33.8615C40.1688 33.4021 39.5491 32.7733 38.6095 31.8355C42.1982 26.3293 41.5212 22.4088 41.2253 21.8464C41.0844 21.5803 40.7949 21.3997 40.4926 21.3997C35.0154 21.3997 30.5597 16.9636 30.5597 11.5105C30.5597 6.05819 35.0154 1.62207 40.4926 1.62207C45.8265 1.62207 50.0055 5.80555 50.4286 11.5699V11.5691C51.3586 24.2795 43.7701 32.5348 41.4774 34.7208Z" fill="#B6BECB"/>
</svg>
