<svg width="81" height="57" viewBox="0 0 81 57" fill="none" xmlns="http://www.w3.org/2000/svg">
<path d="M62.7831 56.6975C72.6484 56.6975 80.6734 48.7078 80.6734 38.8858C80.6734 29.4107 73.2048 21.6392 63.8208 21.1023C63.6583 19.3558 63.7802 14.6017 68.356 7.9884C68.7019 7.48953 68.6391 6.81672 68.2095 6.38901C66.337 4.52481 65.1798 3.35074 64.3699 2.52958C63.3099 1.45591 62.8261 0.965703 62.1183 0.325895C61.8783 0.109029 61.5755 -2.92365e-05 61.2713 -2.92161e-05C60.976 -2.91963e-05 60.6818 0.102872 60.4442 0.307569C52.4709 7.21506 43.6137 21.4872 44.8952 38.9765C45.6461 49.2446 53.1688 56.6975 62.7831 56.6975ZM61.2591 2.96959C61.6025 3.30656 61.994 3.70365 62.5714 4.28837C63.273 5.00033 64.2357 5.97599 65.6957 7.43444C60.1425 15.9536 61.1914 22.0215 61.6505 22.8917C61.8685 23.3048 62.3153 23.583 62.7831 23.583C71.2574 23.583 78.1523 30.4476 78.1523 38.8858C78.1523 47.3229 71.2574 54.1875 62.7831 54.1875C54.5279 54.1875 48.0626 47.7138 47.409 38.7952C45.9686 19.1242 57.7113 6.35223 61.2591 2.96959Z" fill="#E0E5EF"/>
<path d="M0.124029 38.9765L0.124029 38.9778C0.877463 49.2446 8.40137 56.6975 18.0131 56.6975C27.8785 56.6975 35.9048 48.7078 35.9048 38.8858C35.9048 29.4107 28.435 21.6392 19.0497 21.1023C18.8872 19.3571 19.0104 14.6055 23.5872 7.9884C23.9331 7.48953 23.8703 6.81672 23.4407 6.38901C21.5757 4.53221 20.4211 3.36053 19.611 2.54063C18.5462 1.45968 18.0599 0.966962 17.3484 0.324765C17.1084 0.109029 16.8044 -2.92364e-05 16.5015 -2.92161e-05C16.206 -2.91962e-05 15.9118 0.102872 15.6743 0.308824C7.70099 7.21632 -1.1562 21.4884 0.124029 38.9765ZM16.4893 2.96959C16.8351 3.30907 17.2302 3.70854 17.8126 4.29928C18.5142 5.01025 19.4731 5.98326 20.9271 7.43444C15.3739 15.9549 16.4214 22.0215 16.8794 22.8917C17.0973 23.3035 17.5454 23.583 18.0131 23.583C26.4888 23.583 33.3837 30.4476 33.3837 38.8858C33.3837 47.3229 26.4888 54.1875 18.0131 54.1875C9.75925 54.1875 3.2927 47.7138 2.63783 38.7939L2.63783 38.7952C1.19878 19.1267 12.9414 6.35223 16.4893 2.96959Z" fill="#E0E5EF"/>
</svg>
