<svg width="48" height="48" viewBox="0 0 48 48" fill="none" xmlns="http://www.w3.org/2000/svg">
<rect width="48" height="48" rx="24" fill="#2F5FAC"/>
<path d="M31.7627 19.1539C31.1795 19.4119 30.561 19.5813 29.9278 19.6566C30.5953 19.2574 31.0948 18.6291 31.3334 17.8889C30.707 18.2617 30.0202 18.5229 29.3045 18.6643C28.8237 18.1498 28.1864 17.8087 27.4917 17.6938C26.797 17.5789 26.0839 17.6968 25.4631 18.0291C24.8423 18.3613 24.3487 18.8894 24.0589 19.5311C23.7692 20.1729 23.6996 20.8924 23.861 21.5777C22.5907 21.5141 21.3481 21.184 20.2137 20.6089C19.0792 20.0338 18.0785 19.2265 17.2763 18.2395C16.9923 18.7272 16.8431 19.2817 16.8439 19.846C16.8439 20.9536 17.4077 21.9322 18.2648 22.5051C17.7575 22.4891 17.2615 22.3521 16.8179 22.1056V22.1453C16.8181 22.883 17.0734 23.5979 17.5405 24.1689C18.0076 24.7399 18.6578 25.1317 19.3808 25.278C18.9099 25.4056 18.4162 25.4244 17.937 25.333C18.1409 25.968 18.5382 26.5233 19.0734 26.9212C19.6086 27.3191 20.2548 27.5397 20.9216 27.5521C20.2589 28.0726 19.5001 28.4573 18.6886 28.6843C17.8771 28.9113 17.0289 28.9762 16.1923 28.8752C17.6526 29.8143 19.3526 30.3129 21.0888 30.3113C26.9654 30.3113 30.1791 25.443 30.1791 21.221C30.1791 21.0835 30.1753 20.9445 30.1692 20.8085C30.7947 20.3564 31.3346 19.7964 31.7634 19.1547L31.7627 19.1539Z" fill="white"/>
</svg>
